<?xml version="1.0" encoding="UTF-8"?>
<svg width="24px" height="24px" viewBox="0 0 24 24" version="1.1" xmlns="http://www.w3.org/2000/svg" xmlns:xlink="http://www.w3.org/1999/xlink">
    <title>active</title>
    <g id="页面-1" stroke="none" stroke-width="1" fill="none" fill-rule="evenodd">
        <g id="Scenes_Add-condition_time" transform="translate(-1092.000000, -449.000000)">
            <g id="active" transform="translate(1092.000000, 449.000000)">
                <rect id="bg" fill-opacity="0" fill="#00AAEE" x="0" y="0" width="24" height="24"></rect>
                <path d="M9.58368615,17.389053 L4.98927232,13.0667127 C4.55674665,12.6299487 3.82982076,12.6058056 3.3656406,13.0127856 C2.90146043,13.4197649 2.8758019,14.1037562 3.30832832,14.5405203 C3.32675178,14.5591242 3.34586704,14.5771105 3.36563895,14.594446 L8.77186539,19.6820749 C9.2171825,20.1039482 9.94164686,20.1062612 10.3900015,19.687247 C10.3918399,19.6855289 10.3936721,19.6838048 10.3954982,19.682075 L21.6343594,7.87177935 C22.0985396,7.46479998 22.1241981,6.78080875 21.6916714,6.34404461 C21.2591456,5.90728046 20.5322198,5.88313741 20.0680396,6.29011769 C20.0482679,6.307453 20.0291526,6.32543925 20.010729,6.34404337 L9.58368615,17.389053 Z" id="路径" fill="#FF990C"></path>
            </g>
        </g>
    </g>
</svg>