<?xml version="1.0" encoding="UTF-8"?>
<svg width="36px" height="36px" viewBox="0 0 36 36" version="1.1" xmlns="http://www.w3.org/2000/svg" xmlns:xlink="http://www.w3.org/1999/xlink">
    <title>all device</title>
    <defs>
        <linearGradient x1="4.36692629%" y1="0%" x2="91.4347454%" y2="89.0579578%" id="all_device">
            <stop stop-color="#0569CB" offset="0.0448690878%"></stop>
            <stop stop-color="#5BEDFF" offset="100%"></stop>
        </linearGradient>
    </defs>
    <g id="页面-1" stroke="none" stroke-width="1" fill="none" fill-rule="evenodd">
        <g id="Devices-line" transform="translate(-142.000000, -127.000000)">
            <g id="all-device" transform="translate(142.000000, 127.000000)">
                <rect id="矩形" fill="url(#all_device)" opacity="0" x="0" y="1.1061422e-13" width="36" height="36" rx="16"></rect>
                <path d="M25.4999971,16.5999965 L22.4999971,16.5999965 L22.4999971,16.5999965 C21.6715692,16.5999965 20.9999971,17.2267977 20.9999971,17.9999967 C20.9999971,17.9999967 20.9999971,17.9999967 20.9999971,17.9999967 L20.9999971,23.5999965 L20.9999971,23.5999965 C20.9999971,24.3731921 21.6715692,24.9999932 22.4999971,24.9999932 C22.4999971,24.9999932 22.4999971,24.9999932 22.4999971,24.9999932 L25.4999971,24.9999932 L25.4999971,24.9999932 C26.3284279,24.9999932 26.9999971,24.3731921 26.9999971,23.5999965 C26.9999971,23.5999965 26.9999971,23.5999965 26.9999971,23.5999965 L26.9999971,17.9999965 L26.9999971,17.9999965 C26.9999971,17.2267975 26.3284279,16.5999965 25.4999971,16.5999965 L25.4999971,16.5999965 Z M25.4999961,23.6000048 L22.4999961,23.6000048 L22.4999961,18.0000082 L25.4999961,18.0000082 L25.4999961,23.6000048 Z M26.2500015,11 L9.7500004,11 L9.75000037,11 C9.33578779,11 9,11.3134005 9,11.7000008 C9,11.7000008 9,11.7000008 9,11.7000008 L9,21.5 L9,21.5 C9,21.8865979 9.33578604,22.2 9.75000037,22.2 L15.7499928,22.2 L15.7499928,23.6 L14.6249931,23.6 L14.6249931,23.6 C14.4178859,23.6 14.2499938,23.7567004 14.2499938,23.9499996 C14.2499938,23.9499996 14.2499938,23.9499996 14.2499938,23.9499996 L14.2499938,24.6500004 L14.2499938,24.6500004 C14.2499938,24.8433006 14.417887,25 14.6249931,25 C14.6249931,25 14.6249931,25 14.6249931,25 L19.4999858,25 L19.4999858,20.7999984 L10.4999884,20.7999984 L10.4999884,12.3999952 L25.4999782,12.3999952 L25.4999782,15.2000017 L26.9999772,15.2000017 L26.9999772,11.7000058 L26.9999772,11.7000058 C26.9999772,11.3134072 26.6641912,11 26.2499769,11 L26.2500015,11 Z" id="形状" fill="#252631" fill-rule="nonzero"></path>
            </g>
        </g>
    </g>
</svg>