<svg width="36" height="36" viewBox="0 0 36 36" xmlns="http://www.w3.org/2000/svg"><defs><linearGradient x1="4.367%" y1="0%" x2="91.435%" y2="89.058%" id="all_device"><stop stop-color="#0569CB" offset=".045%"/><stop stop-color="#5BEDFF" offset="100%"/></linearGradient></defs><g id="页面-1" stroke="none" stroke-width="1" fill="none" fill-rule="evenodd"><g id="Devices-line" transform="translate(-142 -127)"><g id="all-device" transform="translate(142 127)"><path d="M25.5 16.6h-3c-.828 0-1.5.627-1.5 1.4v5.6c0 .773.672 1.4 1.5 1.4h3c.828 0 1.5-.627 1.5-1.4V18c0-.773-.672-1.4-1.5-1.4Zm0 7h-3V18h3v5.6Zm.75-12.6H9.75c-.414 0-.75.313-.75.7v9.8c0 .387.336.7.75.7h6v1.4h-1.125c-.207 0-.375.157-.375.35v.7c0 .193.168.35.375.35H19.5v-4.2h-9v-8.4h15v2.8H27v-3.5c0-.387-.336-.7-.75-.7Z" id="形状" fill="#252631" fill-rule="nonzero"/></g></g></g></svg>