<?xml version="1.0" encoding="UTF-8"?>
<svg width="20px" height="20px" viewBox="0 0 20 20" version="1.1" xmlns="http://www.w3.org/2000/svg" xmlns:xlink="http://www.w3.org/1999/xlink">
    <title>artist</title>
    <g id="页面-1" stroke="none" stroke-width="1" fill="none" fill-rule="evenodd">
        <g id="device-pop-_music" transform="translate(-1611.000000, -453.000000)" fill="#000000">
            <g id="artist" transform="translate(1611.000000, 453.000000)">
                <path d="M15.5097577,17 C15.4240714,17 15.3438164,16.9708371 15.27764,16.9156925 C14.1979914,16.0160286 13.5193427,15.6655226 12.8571023,15.6655226 C12.3845144,15.6655226 11.910768,15.8445752 11.2218846,16.2835609 L11.126159,16.3445082 C10.3358451,16.8468297 9.91986337,17 9.34588133,17 C8.4692526,17 7.55070248,16.7443967 6.61575375,16.2402789 C5.98543929,15.9004508 5.60398775,15.5954166 5.46924301,15.4800564 C5.45683123,15.469438 5.44506655,15.4579512 5.43422344,15.4458327 L5.3162036,15.314109 L5.30143888,15.3302735 C4.98341802,14.9389909 4.90669266,14.3455832 5.12085041,13.9048005 L8.13975363,7.69107331 C8.14671443,7.67682332 8.15469483,7.66275096 8.16336158,7.64944827 L8.20081261,7.5921523 L8.18593024,7.52520495 C8.11355767,7.19938927 8.07685171,6.86319248 8.07685171,6.5259491 C8.07685171,5.31681216 8.54106799,4.18011939 9.38398994,3.32524884 C10.2266381,2.47064428 11.3469214,2 12.5384249,2 C13.7299361,2 14.8502194,2.47064428 15.6928407,3.32524884 C16.5357837,4.18012903 17,5.31681794 17,6.5259491 C17,7.73508605 16.5357837,8.87177881 15.6928407,9.72666864 C14.8501926,10.5812539 13.7299476,11.0518982 12.5384249,11.0518982 C12.5199935,11.0518982 12.5015816,11.0517995 12.4832092,11.0515429 L12.4286601,11.0508324 L6.63980081,15.4137889 L6.85635095,15.5351112 C6.89044911,15.5541967 6.9249197,15.5732033 6.95978245,15.5920124 C7.78776299,16.0384598 8.59052903,16.2648204 9.34585322,16.2648204 C9.80350163,16.2648204 10.1590896,16.0900113 10.7370908,15.7226899 L10.8320517,15.662157 C11.6267984,15.1557301 12.248544,14.9298822 12.8480239,14.9298822 C13.6718493,14.9298822 14.5644975,15.3676061 15.7423866,16.349118 C15.8974063,16.4782956 15.91923,16.71046 15.7910729,16.8666777 C15.7215434,16.9514079 15.6190138,17 15.5097593,17 L15.5097593,17 L15.5097577,17 Z M12.5384189,2.73517815 C10.4805119,2.73517815 8.80627949,4.43568304 8.80627949,6.52592085 C8.80627949,8.6161548 10.4805176,10.3166635 12.5384189,10.3166635 C14.596326,10.3166635 16.2705583,8.61615866 16.2705583,6.52592085 C16.2705583,4.43568689 14.5963202,2.73517815 12.5384189,2.73517815 Z" id="形状" fill-rule="nonzero"></path>
                <rect id="矩形" stroke="#000000" opacity="0" x="0.5" y="0.5" width="19" height="19"></rect>
                <g>
                    <path d="M15.5097577,17 C15.4240714,17 15.3438164,16.9708371 15.27764,16.9156925 C14.1979914,16.0160286 13.5193427,15.6655226 12.8571023,15.6655226 C12.3845144,15.6655226 11.910768,15.8445752 11.2218846,16.2835609 L11.126159,16.3445082 C10.3358451,16.8468297 9.91986337,17 9.34588133,17 C8.4692526,17 7.55070248,16.7443967 6.61575375,16.2402789 C5.98543929,15.9004508 5.60398775,15.5954166 5.46924301,15.4800564 C5.45683123,15.469438 5.44506655,15.4579512 5.43422344,15.4458327 L5.3162036,15.314109 L5.30143888,15.3302735 C4.98341802,14.9389909 4.90669266,14.3455832 5.12085041,13.9048005 L8.13975363,7.69107331 C8.14671443,7.67682332 8.15469483,7.66275096 8.16336158,7.64944827 L8.20081261,7.5921523 L8.18593024,7.52520495 C8.11355767,7.19938927 8.07685171,6.86319248 8.07685171,6.5259491 C8.07685171,5.31681216 8.54106799,4.18011939 9.38398994,3.32524884 C10.2266381,2.47064428 11.3469214,2 12.5384249,2 C13.7299361,2 14.8502194,2.47064428 15.6928407,3.32524884 C16.5357837,4.18012903 17,5.31681794 17,6.5259491 C17,7.73508605 16.5357837,8.87177881 15.6928407,9.72666864 C14.8501926,10.5812539 13.7299476,11.0518982 12.5384249,11.0518982 C12.5199935,11.0518982 12.5015816,11.0517995 12.4832092,11.0515429 L12.4286601,11.0508324 L6.63980081,15.4137889 L6.85635095,15.5351112 C6.89044911,15.5541967 6.9249197,15.5732033 6.95978245,15.5920124 C7.78776299,16.0384598 8.59052903,16.2648204 9.34585322,16.2648204 C9.80350163,16.2648204 10.1590896,16.0900113 10.7370908,15.7226899 L10.8320517,15.662157 C11.6267984,15.1557301 12.248544,14.9298822 12.8480239,14.9298822 C13.6718493,14.9298822 14.5644975,15.3676061 15.7423866,16.349118 C15.8974063,16.4782956 15.91923,16.71046 15.7910729,16.8666777 C15.7215434,16.9514079 15.6190138,17 15.5097593,17 L15.5097593,17 L15.5097577,17 Z M12.5384189,2.73517815 C10.4805119,2.73517815 8.80627949,4.43568304 8.80627949,6.52592085 C8.80627949,8.6161548 10.4805176,10.3166635 12.5384189,10.3166635 C14.596326,10.3166635 16.2705583,8.61615866 16.2705583,6.52592085 C16.2705583,4.43568689 14.5963202,2.73517815 12.5384189,2.73517815 Z" id="形状" fill-rule="nonzero"></path>
                    <rect id="矩形" stroke="#000000" opacity="0" x="0.5" y="0.5" width="19" height="19"></rect>
                </g>
            </g>
        </g>
    </g>
</svg>