<svg width="20" height="20" viewBox="0 0 20 20" xmlns="http://www.w3.org/2000/svg"><g id="页面-1" stroke="none" stroke-width="1" fill="none" fill-rule="evenodd"><g id="device-pop-_music" transform="translate(-1611 -453)" fill="#000"><g id="artist" transform="translate(1611 453)"><path d="M15.51 17a.359.359 0 0 1-.232-.084c-1.08-.9-1.759-1.25-2.42-1.25-.473 0-.947.179-1.636.618l-.096.06c-.79.503-1.206.656-1.78.656-.877 0-1.795-.256-2.73-.76a6.665 6.665 0 0 1-1.147-.76.369.369 0 0 1-.035-.034l-.118-.132-.015.016c-.318-.391-.394-.984-.18-1.425L8.14 7.69a.392.392 0 0 1 .023-.042l.038-.057-.015-.067a4.616 4.616 0 0 1-.11-1 4.53 4.53 0 0 1 1.308-3.2A4.4 4.4 0 0 1 12.538 2a4.4 4.4 0 0 1 3.155 1.325A4.53 4.53 0 0 1 17 6.525a4.53 4.53 0 0 1-1.307 3.202 4.4 4.4 0 0 1-3.21 1.325l-.054-.001-5.79 4.363.217.121c.034.02.069.038.104.057.828.446 1.63.673 2.386.673.458 0 .813-.175 1.391-.542l.095-.06c.795-.507 1.417-.733 2.016-.733.824 0 1.716.438 2.894 1.42a.37.37 0 0 1 .05.517.363.363 0 0 1-.282.133ZM12.538 2.735c-2.057 0-3.732 1.7-3.732 3.79 0 2.091 1.675 3.792 3.732 3.792 2.058 0 3.733-1.7 3.733-3.791 0-2.09-1.675-3.79-3.733-3.79Z" id="形状" fill-rule="nonzero"/><path d="M15.51 17a.359.359 0 0 1-.232-.084c-1.08-.9-1.759-1.25-2.42-1.25-.473 0-.947.179-1.636.618l-.096.06c-.79.503-1.206.656-1.78.656-.877 0-1.795-.256-2.73-.76a6.665 6.665 0 0 1-1.147-.76.369.369 0 0 1-.035-.034l-.118-.132-.015.016c-.318-.391-.394-.984-.18-1.425L8.14 7.69a.392.392 0 0 1 .023-.042l.038-.057-.015-.067a4.616 4.616 0 0 1-.11-1 4.53 4.53 0 0 1 1.308-3.2A4.4 4.4 0 0 1 12.538 2a4.4 4.4 0 0 1 3.155 1.325A4.53 4.53 0 0 1 17 6.525a4.53 4.53 0 0 1-1.307 3.202 4.4 4.4 0 0 1-3.21 1.325l-.054-.001-5.79 4.363.217.121c.034.02.069.038.104.057.828.446 1.63.673 2.386.673.458 0 .813-.175 1.391-.542l.095-.06c.795-.507 1.417-.733 2.016-.733.824 0 1.716.438 2.894 1.42a.37.37 0 0 1 .05.517.363.363 0 0 1-.282.133ZM12.538 2.735c-2.057 0-3.732 1.7-3.732 3.79 0 2.091 1.675 3.792 3.732 3.792 2.058 0 3.733-1.7 3.733-3.791 0-2.09-1.675-3.79-3.733-3.79Z" id="形状" fill-rule="nonzero"/></g></g></g></svg>