<svg width="24" height="24" viewBox="0 0 24 24" xmlns="http://www.w3.org/2000/svg"><g id="页面-1" stroke="none" stroke-width="1" fill="none" fill-rule="evenodd"><g id="画板" transform="translate(-627 -172)"><g id="card_Open-Door" transform="translate(627 172)"><path id="矩形" d="M0 0h24v24H0z"/><path d="M18.467 10.429h-1.634V8.286C16.833 5.919 14.893 4 12.5 4c-2.393 0-4.333 1.919-4.333 4.286v2.143H6.533a.53.53 0 0 0-.533.527v7.516a.53.53 0 0 0 .533.528h11.934a.53.53 0 0 0 .533-.528v-7.516a.53.53 0 0 0-.533-.527ZM9.25 8.286c0-1.773 1.458-3.215 3.25-3.215s3.25 1.442 3.25 3.215v2.143h-6.5V8.286Zm8.667 9.643H7.083V11.5h10.834v6.429Z" id="形状" fill-opacity=".6" fill="#549FFF" fill-rule="nonzero"/></g></g></g></svg>