<?xml version="1.0" encoding="UTF-8"?>
<svg width="24px" height="24px" viewBox="0 0 24 24" version="1.1" xmlns="http://www.w3.org/2000/svg" xmlns:xlink="http://www.w3.org/1999/xlink">
    <title>card_more_Location</title>
    <g id="页面-1" stroke="none" stroke-width="1" fill="none" fill-rule="evenodd">
        <g id="画板" transform="translate(-147.000000, -362.000000)">
            <g id="card_more_Location" transform="translate(147.000000, 362.000000)">
                <rect id="矩形" stroke="#979797" fill="#D8D8D8" opacity="0" x="0.5" y="0.5" width="23" height="23"></rect>
                <path d="M15.5,13.5196285 C16.2888437,12.2113818 17,10.4985288 17,9.76803164 C17,7.32905552 14.5370625,5.17660891 12,5.17660891 C9.46293748,5.17660891 7.16559973,7.32905552 7.16559973,9.76803164 C7.16559973,10.4985438 7.66878327,11.9574 8.45762702,13.2656466 C9.23043952,14.5473513 10.5560156,16.0446812 12.0695938,17.7490895 C13.5831719,16.0446812 14.7271719,14.8013182 15.5,13.5196285 Z M12.5142656,18.814333 C12.1894531,19.0873682 11.6959063,19.0555689 11.411875,18.7433291 C7.80395312,14.7767559 6,11.7849951 6,9.76803162 C6,6.58244088 8.68629688,4 12,4 C15.3137031,4 18,6.58244088 18,9.76803162 C18,11.7849951 16.1960469,14.7767559 12.588125,18.7433141 C12.5651805,18.7685545 12.5405055,18.7922755 12.5142656,18.814333 Z M12,12.1713781 C13.3807187,12.1713781 14.5,11.0953699 14.5,9.76803164 C14.5,8.44069341 13.3807187,7.36468514 12,7.36468514 C10.6192812,7.36468514 9.49999998,8.44069341 9.49999998,9.76803164 C9.49999998,11.0953699 10.6192812,12.1713781 12,12.1713781 Z M12,10.8194957 C11.3959375,10.8194957 10.90625,10.3487402 10.90625,9.76803164 C10.90625,9.18732304 11.3959375,8.71656755 12,8.71656755 C12.6040625,8.71656755 13.09375,9.18732304 13.09375,9.76803164 C13.09375,10.3487402 12.6040625,10.8194957 12,10.8194957 Z" id="形状" fill="#636363" fill-rule="nonzero"></path>
            </g>
        </g>
    </g>
</svg>