<?xml version="1.0" encoding="UTF-8"?>
<svg width="24px" height="24px" viewBox="0 0 24 24" version="1.1" xmlns="http://www.w3.org/2000/svg" xmlns:xlink="http://www.w3.org/1999/xlink">
    <title>Trigger Status</title>
    <g id="页面-1" stroke="none" stroke-width="1" fill="none" fill-rule="evenodd">
        <g id="详情页模块化" transform="translate(-1019.000000, -3012.000000)">
            <g id="Trigger-Status" transform="translate(1019.000000, 3012.000000)">
                <rect id="矩形" fill="#D8D8D8" opacity="0" x="0" y="0" width="24" height="24"></rect>
                <circle id="椭圆形" fill="#99C6FF" cx="11.5" cy="9.5" r="1.5"></circle>
                <rect id="矩形" fill="#99C6FF" x="11" y="10" width="1" height="9" rx="0.5"></rect>
                <rect id="矩形" fill="#99C6FF" x="9" y="18" width="5" height="1" rx="0.5"></rect>
                <path d="M17.3291222,5.19358983 C17.1700579,5.22750016 17.031806,5.32121537 16.9453202,5.45375335 C16.7612784,5.73057261 16.8405593,6.0978749 17.1240938,6.28184826 C17.1902903,6.32497476 18.7681255,7.37275044 18.7681255,9.97808678 C18.7681255,12.5900986 17.2546618,13.6385353 17.1948181,13.6779935 C16.9101129,13.864148 16.8339999,14.2352177 17.0238435,14.5110125 C17.1136347,14.6422726 17.2544001,14.733608 17.4147729,14.7646656 C17.5751434,14.7957663 17.7418129,14.7639998 17.8776319,14.6764463 C17.9644535,14.6208776 20,13.261451 20,9.97744231 C20,6.68841048 17.8821081,5.32962829 17.7914818,5.27351427 C17.654729,5.18853032 17.4881745,5.1597395 17.3291222,5.19358983 Z M15.40722,7.01458561 C15.2548398,7.0674235 15.1306736,7.1763541 15.0621891,7.31728077 C14.9162985,7.61313517 15.0404105,7.966789 15.3431755,8.11761609 C15.3824114,8.13731218 16.3049788,8.60383847 16.3049788,9.93421665 C16.3049788,11.3547474 15.442169,11.8255533 15.4138999,11.8409863 C15.1082081,11.9920282 14.9853701,12.350573 15.1380439,12.6462126 C15.2879756,12.9393422 15.6571087,13.0603162 15.9625268,12.9164174 C16.0292257,12.8832098 17.536216,12.1236546 17.536216,9.93487732 C17.536216,7.82141442 15.9417327,7.06676675 15.8742277,7.03530588 C15.7277045,6.96939664 15.5596303,6.96173698 15.40722,7.01458561 Z" id="形状" fill-opacity="0.6" fill="#549FFF" fill-rule="nonzero"></path>
                <g id="编组-7" transform="translate(5.500565, 9.978028) scale(-1, 1) translate(-5.500565, -9.978028) translate(3.001130, 5.179741)" fill="#549FFF" fill-opacity="0.6" fill-rule="nonzero">
                    <path d="M2.32799238,0.0138490762 C2.16892809,0.0477594042 2.03067624,0.141474612 1.94419039,0.274012593 C1.76014864,0.550831851 1.83942948,0.918134143 2.12296397,1.1021075 C2.18916046,1.145234 3.76699567,2.19300968 3.76699567,4.79834603 C3.76699567,7.41035789 2.25353203,8.45879451 2.19368834,8.49825278 C1.90898315,8.68440725 1.83287009,9.05547691 2.02271372,9.33127171 C2.11250489,9.46253188 2.25327031,9.5538672 2.41364316,9.58492489 C2.57401357,9.61602553 2.74068309,9.58425904 2.87650211,9.49670558 C2.96332368,9.44113683 4.99887021,8.08171022 4.99887021,4.79770155 C4.99887021,1.50866973 2.88097834,0.149887532 2.79035198,0.0937735102 C2.65359925,0.00878956104 2.48704474,-0.0200012612 2.32799238,0.0138490762 Z" id="路径"></path>
                    <path d="M0.406090207,1.83484486 C0.253710017,1.88768275 0.129543814,1.99661335 0.0610592787,2.13754001 C-0.0848312544,2.43339441 0.0392807178,2.78704824 0.342045754,2.93787533 C0.381281596,2.95757142 1.30384898,3.42409771 1.30384898,4.7544759 C1.30384898,6.17500665 0.441039212,6.64581254 0.412770124,6.66124555 C0.107078325,6.81228744 -0.0157596449,7.17083224 0.136914092,7.46647184 C0.286845776,7.75960147 0.655978953,7.88057544 0.961397014,7.73667668 C1.02809586,7.70346904 2.53508619,6.94391387 2.53508619,4.75513656 C2.53508619,2.64167366 0.940602861,1.88702599 0.873097931,1.85556513 C0.726574728,1.78965588 0.558500535,1.78199622 0.406090207,1.83484486 Z" id="路径"></path>
                </g>
            </g>
        </g>
    </g>
</svg>