<?xml version="1.0" encoding="UTF-8"?>
<svg width="24px" height="24px" viewBox="0 0 24 24" version="1.1" xmlns="http://www.w3.org/2000/svg" xmlns:xlink="http://www.w3.org/1999/xlink">
    <title>card_Monitor</title>
    <g id="页面-1" stroke="none" stroke-width="1" fill="none" fill-rule="evenodd">
        <g id="device-pop-_Doorphone" transform="translate(-1512.000000, -382.000000)">
            <g id="card_Monitor" transform="translate(1512.000000, 382.000000)">
                <rect id="矩形" opacity="0.6" x="0" y="0" width="24" height="24"></rect>
                <g id="监控3" transform="translate(5.000000, 4.000000)" fill="#99C6FF" fill-rule="nonzero">
                    <path d="M3.88340874,7.85792041 L1.74748625,5.58653304 C1.42844813,5.24720033 1.37587116,4.3618917 1.66880182,4.00002929 L1.75827862,4.1328456 L9.88025195,12.3686635 L9.62890513,12.5486302 C9.33062139,12.730062 8.98880431,13.0957754 8.68912201,12.9166373 L3.88059327,7.86258608 L3.88340874,7.85792041 Z M4.95950836,10.6378609 L4.76279904,11.3091198 C4.63018829,11.5331447 4.40939909,12.093039 4.15387529,12.14793 C4.08725975,12.1633245 4.01782924,12.171255 3.94652254,12.171255 L0.910100129,12.3420519 L0.910100129,13.3683085 C0.91010014,13.8837317 0.999143377,14.8619066 0.480962156,14.8619066 C-0.0372168659,14.8619066 -7.51382463e-13,13.8835911 -7.51382463e-13,13.3683085 L4.39791804e-08,9.63601743 C-4.5258987e-08,9.1205944 -0.0372190649,8.67016705 0.480962156,8.67016705 C0.999141178,8.67016705 0.910100173,9.12073505 0.910100173,9.63601757 L0.910100173,11.0099085 L3.37653687,10.8391117 L3.94652254,9.63764622 L4.95950836,10.6378609 Z M4.95160418,0.348199133 C5.27641462,-0.0532843633 5.86702493,-0.116913474 6.27076701,0.206079594 C6.2952632,0.22567652 6.31875334,0.246485544 6.34114859,0.268427507 L14.7201804,8.4802302 C15.0893363,8.84183677 15.0938091,9.43256106 14.7301692,9.7996541 C14.6765486,9.85378389 14.6164791,9.90119739 14.5512957,9.94084171 L11.4644669,11.8171045 L2.79269534,3.01659368 L4.95160418,0.348199133 Z" id="形状"></path>
                </g>
            </g>
        </g>
    </g>
</svg>