<?xml version="1.0" encoding="UTF-8"?>
<svg width="24px" height="24px" viewBox="0 0 24 24" version="1.1" xmlns="http://www.w3.org/2000/svg" xmlns:xlink="http://www.w3.org/1999/xlink">
    <title>card_more_Remove</title>
    <g id="页面-1" stroke="none" stroke-width="1" fill="none" fill-rule="evenodd">
        <g id="画板" transform="translate(-252.000000, -362.000000)">
            <g id="card_more_Remove" transform="translate(252.000000, 362.000000)">
                <rect id="矩形" stroke="#979797" fill="#D8D8D8" opacity="0" x="0.5" y="0.5" width="23" height="23"></rect>
                <g id="移除" transform="translate(5.000000, 5.000000)" fill="#636363" fill-rule="nonzero">
                    <path d="M7,14 C3.14797688,14 0,10.8520231 0,7 C0,3.14797688 3.14797688,0 7,0 C10.8520231,0 14,3.14797688 14,7 C14,10.8520231 10.8520231,14 7,14 Z M7,12.9965318 C10.3017341,12.9965318 12.9965318,10.3017341 12.9965318,7 C12.9965318,3.6982659 10.3017341,1.00346821 7,1.00346821 C3.6982659,1.00346821 1.00346821,3.6982659 1.00346821,7 C1.00346821,10.3017341 3.6982659,12.9965318 7,12.9965318 Z M10.4959538,7 C10.4959538,7.29942197 10.2936416,7.5017341 9.99421965,7.5017341 L3.99768786,7.5017341 C3.6982659,7.5017341 3.49595376,7.29942197 3.49595376,7 C3.49595376,6.70057803 3.6982659,6.4982659 3.99768786,6.4982659 L9.99421965,6.4982659 C10.3017341,6.4982659 10.4959538,6.70057803 10.4959538,7 L10.4959538,7 Z" id="形状"></path>
                </g>
            </g>
        </g>
    </g>
</svg>