<?xml version="1.0" encoding="UTF-8"?>
<svg width="24px" height="24px" viewBox="0 0 24 24" version="1.1" xmlns="http://www.w3.org/2000/svg" xmlns:xlink="http://www.w3.org/1999/xlink">
    <title>card_Open Door</title>
    <g id="页面-1" stroke="none" stroke-width="1" fill="none" fill-rule="evenodd">
        <g id="画板" transform="translate(-627.000000, -172.000000)">
            <g id="card_Open-Door" transform="translate(627.000000, 172.000000)">
                <rect id="矩形" x="0" y="0" width="24" height="24"></rect>
                <path d="M18.4666276,10.4285714 L16.8333333,10.4285714 L16.8333333,8.28571429 C16.8333333,5.91886161 14.893151,4 12.5,4 C10.106849,4 8.16666667,5.91886161 8.16666667,8.28571429 L8.16666667,10.4285714 L6.5333724,10.4285714 C6.23884115,10.4285714 6,10.6647879 6,10.9560826 L6,18.4724888 C6,18.7637835 6.23884115,19 6.5333724,19 L18.4666276,19 C18.7611589,19 19,18.7637835 19,18.4724888 L19,10.9560826 C19,10.6647879 18.7611589,10.4285714 18.4666276,10.4285714 Z M9.25,8.28571429 C9.25,6.51333705 10.7079297,5.07142857 12.5,5.07142857 C14.2920703,5.07142857 15.75,6.51333705 15.75,8.28571429 L15.75,10.4285714 L9.25,10.4285714 L9.25,8.28571429 Z M17.9166667,17.9285714 L7.08333333,17.9285714 L7.08333333,11.5 L17.9166667,11.5 L17.9166667,17.9285714 Z" id="形状" fill-opacity="0.6" fill="#549FFF" fill-rule="nonzero"></path>
            </g>
        </g>
    </g>
</svg>