<?xml version="1.0" encoding="UTF-8"?>
<svg width="24px" height="24px" viewBox="0 0 24 24" version="1.1" xmlns="http://www.w3.org/2000/svg" xmlns:xlink="http://www.w3.org/1999/xlink">
    <title>card_more_Edit</title>
    <g id="页面-1" stroke="none" stroke-width="1" fill="none" fill-rule="evenodd">
        <g id="画板" transform="translate(-217.000000, -362.000000)">
            <g id="card_more_Edit" transform="translate(217.000000, 362.000000)">
                <rect id="矩形" stroke="#979797" fill="#D8D8D8" opacity="0" x="0.5" y="0.5" width="23" height="23"></rect>
                <path d="M17.1859937,6.14454105 L17.1859937,6.14454106 C17.367648,5.95645962 17.6673775,5.95125014 17.8554589,6.13290523 C18.0435404,6.31455952 18.0487499,6.61428903 17.8670948,6.80237047 C17.8632839,6.8063162 17.8594047,6.81019539 17.855459,6.81400629 L11.160333,13.5092949 L11.1603331,13.5092949 C10.9754223,13.6942056 10.6756218,13.6942056 10.4907095,13.5092949 C10.3057987,13.3243842 10.3057987,13.0245836 10.4907095,12.8396714 L17.1859981,6.14470827 L17.1859937,6.14454105 Z M17.0472714,11.0559995 L17.0472714,11.0559996 C17.0472714,10.7945179 17.2592446,10.5825447 17.5207263,10.5825447 C17.7822081,10.5825447 17.9941812,10.7945179 17.9941812,11.0559996 C17.9941812,11.0559996 17.9941812,11.0559996 17.9941812,11.0559996 L17.9941812,16.2640036 C17.9941812,17.2227498 17.2169266,18 16.2581848,18 L7.73599641,18 C6.77725022,18 6,17.2227454 6,16.2640036 L6,7.74181524 C6,6.78306905 6.77725465,6.00581884 7.73599641,6.00581884 L12.7861772,6.00581884 L12.7861772,6.00581884 C13.0476589,6.00581884 13.2596321,6.217792 13.2596321,6.47927374 C13.2596321,6.74075549 13.0476589,6.95272865 12.7861772,6.95272865 L7.73599639,6.95272865 L7.73599636,6.95272865 C7.30019295,6.95272867 6.94690533,7.30601627 6.94690533,7.74181968 C6.94690533,7.74181968 6.94690533,7.74181968 6.94690533,7.74181968 L6.94690533,16.264008 L6.94690533,16.2640079 C6.94690526,16.6998113 7.30019295,17.0530989 7.73599636,17.0530989 L16.2581848,17.0530989 L16.2581847,17.0530989 C16.6939881,17.053099 17.0472758,16.6998113 17.0472758,16.2640079 C17.0472758,16.2640079 17.0472758,16.2640079 17.0472758,16.2640079 L17.0472758,11.0560039 L17.0472714,11.0559995 Z" id="形状" fill="#636363" fill-rule="nonzero"></path>
            </g>
        </g>
    </g>
</svg>