<?xml version="1.0" encoding="UTF-8"?>
<svg width="24px" height="24px" viewBox="0 0 24 24" version="1.1" xmlns="http://www.w3.org/2000/svg" xmlns:xlink="http://www.w3.org/1999/xlink">
    <title>card_Power备份</title>
    <g id="页面-1" stroke="none" stroke-width="1" fill="none" fill-rule="evenodd" opacity="0.6">
        <g id="画板" transform="translate(-418.000000, -172.000000)">
            <g id="card_Power备份" transform="translate(418.000000, 172.000000)">
                <rect id="矩形" x="0" y="0" width="24" height="24"></rect>
                <path d="M6.33861656,20.9667809 C6.20134094,20.9174298 6.07086027,20.8337398 6.02891645,20.6857051 C5.97173285,20.4838837 5.97173285,20.0388795 6.29236391,19.2346479 L8.33067048,13.307204 C7.07275922,13.1185991 6.40874125,13.0107967 6.33861656,12.983797 C5.88525727,12.8106915 5.98032076,12.2658802 6.20876172,11.8213403 L9.67964326,4.53310623 C9.68140301,4.52886837 9.6824895,4.52378612 9.68502219,4.52045025 C9.94780549,4.17433212 10.1453928,3.99907756 10.5039971,4.00000365 L15.9342389,4.96774893 C16.095035,4.96774893 16.448586,4.98494523 16.5884064,5.0583568 C16.9658521,5.25653164 17.1314412,5.64087369 16.8797994,6.04136098 L13.1312451,10.380968 L15.2125741,10.6798235 C15.583323,10.7569913 15.9247493,10.8767816 16.0707686,11.1713014 C16.134938,11.5841579 16.0598491,11.9086368 15.845502,12.1447381 C10.3350538,17.6031393 7.49726922,20.4014735 7.33214814,20.5397406 C7.08446652,20.7471413 6.81181267,20.9999264 6.52554458,20.9999264 C6.46164956,20.9999264 6.39829604,20.9886132 6.33861656,20.9667809 Z M7.44472962,12.0934592 L9.82927029,12.4890931 L7.44472962,19.0119041 L14.9047812,11.6768965 L11.1976813,11.1864682 L15.3149598,6.09213931 L10.7678856,5.13781906 L7.44472962,12.0934592 Z" id="形状" fill="#549FFF" fill-rule="nonzero"></path>
            </g>
        </g>
    </g>
</svg>