<svg width="24" height="24" viewBox="0 0 24 24" xmlns="http://www.w3.org/2000/svg"><g id="页面-1" stroke="none" stroke-width="1" fill="none" fill-rule="evenodd"><g id="device-pop-_Doorphone" transform="translate(-1512 -310)"><g id="card_lock" transform="translate(1512 310)"><path id="矩形" opacity=".6" d="M0 0h24v24H0z"/><path d="M18.967 10.679h-1.634V8.536c0-2.367-1.94-4.286-4.333-4.286-2.393 0-4.333 1.919-4.333 4.286v2.143H7.033a.53.53 0 0 0-.533.527v7.516a.53.53 0 0 0 .533.528h11.934a.53.53 0 0 0 .533-.528v-7.516a.53.53 0 0 0-.533-.527ZM9.75 8.536c0-1.773 1.458-3.215 3.25-3.215s3.25 1.442 3.25 3.215v2.143h-6.5V8.536Zm8.667 9.643H7.583V11.75h10.834v6.429Z" id="形状" fill="#99C6FF" fill-rule="nonzero"/></g></g></g></svg>