<?xml version="1.0" encoding="UTF-8"?>
<svg width="24px" height="24px" viewBox="0 0 24 24" version="1.1" xmlns="http://www.w3.org/2000/svg" xmlns:xlink="http://www.w3.org/1999/xlink">
    <title>card_Battery status</title>
    <g id="页面-1" stroke="none" stroke-width="1" fill="none" fill-rule="evenodd">
        <g id="画板" transform="translate(-557.000000, -172.000000)">
            <g id="card_Battery-status" transform="translate(557.000000, 172.000000)">
                <rect id="矩形" x="0" y="0" width="24" height="24"></rect>
                <g id="电量备份-14" opacity="0.6" transform="translate(4.000000, 6.000000)" fill="#549FFF" fill-rule="nonzero">
                    <path d="M13.458335,0.9375 L1.18055229,0.9375 C0.529646891,0.9375 0,1.42513254 0,2.02445458 L0,9.85054542 C0,10.4498675 0.529646891,10.9375 1.18055229,10.9375 L13.4583107,10.9375 C14.1092404,10.9375 14.638863,10.4498451 14.638863,9.85054542 L14.638863,2.02445458 C14.638863,1.42513254 14.1092404,0.9375 13.458335,0.9375 Z M13.2222051,9.63315898 L1.4166579,9.63315898 L1.4166579,2.24184102 L13.2222051,2.24184102 L13.2222051,9.63315898 Z M15.583334,3.00271593 L16.9999919,3.00271593 L16.9999919,8.87228407 L15.583334,8.87228407 L15.583334,3.00271593 Z M2.36111808,3.66477273 L7.08333806,3.66477273 L7.08333806,8.21022727 L2.36111808,8.21022727 L2.36111808,3.66477273 Z" id="形状"></path>
                </g>
            </g>
        </g>
    </g>
</svg>