<?xml version="1.0" encoding="UTF-8"?>
<svg width="24px" height="24px" viewBox="0 0 24 24" version="1.1" xmlns="http://www.w3.org/2000/svg" xmlns:xlink="http://www.w3.org/1999/xlink">
    <title>card_room</title>
    <g id="页面-1" stroke="none" stroke-width="1" fill="none" fill-rule="evenodd">
        <g id="画板" transform="translate(-886.000000, -172.000000)">
            <g id="card_room" transform="translate(886.000000, 172.000000)">
                <rect id="矩形" stroke="#979797" fill="#D8D8D8" opacity="0" x="0.5" y="0.5" width="23" height="23"></rect>
                <g id="房间备份-7" opacity="0.6" transform="translate(6.000000, 5.000000)" fill="#549FFF" fill-rule="nonzero">
                    <path d="M0.539299123,1.50660653 L6.93919456,0.033887261 C7.25073354,-0.0341658898 7.5009551,0.000280347026 7.68985923,0.137225972 C7.87876336,0.274171596 7.99125579,0.507822954 8.02733652,0.838180045 L8.02733652,14.4263431 C8.02733652,14.6524069 7.95874112,14.8128351 7.82155034,14.9076275 C7.68436388,15.00242 7.48722877,15.0242556 7.23014502,14.9731342 L0.487474111,13.8151036 C0.286757035,13.7414602 0.157823329,13.6694442 0.100672993,13.5990558 C0.0435226562,13.5286673 0.00996499197,13.4005829 0,13.2148027 L0,2.21286327 C0.00192695115,1.98191941 0.0354846154,1.8237627 0.100672993,1.73839314 C0.16586137,1.65302357 0.31207008,1.57576137 0.539299123,1.50660653 Z M1.35536734,12.8452001 L6.67203604,13.7585583 L6.67203604,1.23356608 L1.35536734,2.45710189 L1.35536734,12.8452001 L1.35536734,12.8452001 Z M11.6446851,12.4203684 L9.61658938,12.4203684 C9.36754538,12.5064687 9.24302337,12.7064018 9.24302337,13.0201675 C9.24302337,13.3339331 9.36754538,13.5169257 9.61658938,13.5691453 L12.3904354,13.5691453 C12.6030218,13.564723 12.7566387,13.5162228 12.8512863,13.4236445 C12.9459338,13.3310663 12.9955051,13.1917297 13,13.0056347 L13,1.65990613 C12.9983026,1.43863347 12.9487313,1.25961889 12.8512863,1.12286239 C12.7538412,0.986105884 12.5473104,0.922567901 12.2316937,0.932248437 L9.60354573,0.932248437 C9.36319749,1.02942179 9.24302337,1.21415174 9.24302337,1.48643829 C9.24302337,1.75872484 9.36319749,1.95691534 9.60354573,2.0810098 L11.6446851,2.0810098 L11.6446851,12.4203684 Z M6.28465103,7.54826692 C6.28465103,7.07764677 5.98161547,6.69679132 5.60728603,6.69679132 C5.23295659,6.69679132 4.92992104,7.07820468 4.92992104,7.54826692 C4.92992104,8.01886783 5.23295659,8.39974253 5.60728603,8.39974253 C5.98161547,8.39918463 6.28465103,8.01830993 6.28465103,7.54826692 Z" id="形状"></path>
                </g>
            </g>
        </g>
    </g>
</svg>