<svg width="24" height="24" viewBox="0 0 24 24" xmlns="http://www.w3.org/2000/svg"><g id="页面-1" stroke="none" stroke-width="1" fill="none" fill-rule="evenodd"><g id="画板" transform="translate(-182 -362)"><g id="card_more_Replace" transform="translate(182 362)"><path d="M10.524 16.786c-1.573-.144-2.622-1.286-2.688-2.929h.918l-1.377-2.285L6 13.857h.918c.065 2.215 1.508 3.929 3.607 4.143h.065c.131 0 .262-.072.328-.143.131-.143.197-.286.197-.428-.131-.357-.327-.572-.59-.643Zm2.887-10.571c1.442.143 2.426 1.071 2.622 2.428h-.852l1.377 2.286L18 8.643h-.918c-.262-2-1.64-3.429-3.54-3.643-.132 0-.263.072-.394.143-.131.142-.197.286-.197.428 0 .357.197.572.46.643Zm3.606 5.928h-4.459c-.262 0-.525.286-.525.572v4.642c0 .357.197.571.525.571h4.46c.262 0 .524-.285.524-.57v-4.643c0-.286-.262-.572-.525-.572Zm-.524 1.214v3.5h-3.476v-3.5h3.475ZM11.377 5h-4.46c-.261 0-.524.287-.524.644v4.642c0 .357.197.643.525.643h4.46c.261 0 .524-.286.524-.643V5.644c0-.358-.197-.643-.525-.643V5Zm-.46 1.143v3.5H7.444v-3.5h3.475Z" id="形状" fill="#636363" fill-rule="nonzero"/></g></g></g></svg>