<svg width="24" height="24" viewBox="0 0 24 24" xmlns="http://www.w3.org/2000/svg"><g id="页面-1" stroke="none" stroke-width="1" fill="none" fill-rule="evenodd"><g id="画板" transform="translate(-886 -172)"><g id="card_room" transform="translate(886 172)"><g id="房间备份-7" opacity=".6" transform="translate(6 5)" fill="#549FFF" fill-rule="nonzero"><path d="M.54 1.507 6.94.034c.31-.068.561-.034.75.103.189.137.301.37.337.701v13.588c0 .226-.068.387-.205.482-.138.094-.335.116-.592.065L.487 13.815c-.2-.074-.33-.146-.386-.216-.057-.07-.091-.198-.101-.384V2.213c.002-.231.035-.39.1-.475.066-.085.212-.162.44-.231Zm.815 11.338 5.317.914V1.234L1.355 2.457v10.388Zm10.29-.425H9.617c-.25.086-.374.286-.374.6s.125.497.374.55h2.773c.213-.005.367-.054.461-.146.095-.093.145-.232.149-.418V1.66c-.002-.221-.051-.4-.149-.537-.097-.137-.304-.2-.62-.19H9.605c-.24.096-.361.281-.361.553 0 .273.12.47.36.595h2.042v10.34Zm-5.36-4.872c0-.47-.303-.851-.678-.851-.374 0-.677.381-.677.851s.303.852.677.852c.375 0 .678-.382.678-.852Z" id="形状"/></g></g></g></g></svg>