<svg width="24" height="24" viewBox="0 0 24 24" xmlns="http://www.w3.org/2000/svg"><g id="页面-1" stroke="none" stroke-width="1" fill="none" fill-rule="evenodd" opacity=".6"><g id="画板" transform="translate(-418 -172)"><g id="card_Power备份" transform="translate(418 172)"><path id="矩形" d="M0 0h24v24H0z"/><path d="M6.339 20.967c-.138-.05-.268-.133-.31-.281-.057-.202-.057-.647.263-1.451l2.039-5.928c-1.258-.188-1.922-.296-1.992-.323-.454-.173-.359-.718-.13-1.163l3.47-7.288c.002-.004.003-.01.006-.013.263-.346.46-.52.819-.52l5.43.968c.161 0 .515.017.654.09.378.199.543.583.292.983l-3.749 4.34 2.082.299c.37.077.712.197.858.491.064.413-.011.738-.225.974-5.51 5.458-8.349 8.256-8.514 8.395-.248.207-.52.46-.806.46a.545.545 0 0 1-.187-.033Zm1.106-8.874 2.384.396-2.384 6.523 7.46-7.335-3.707-.49 4.117-5.095-4.547-.954-3.323 6.955Z" id="形状" fill="#549FFF" fill-rule="nonzero"/></g></g></g></svg>