<?xml version="1.0" encoding="UTF-8"?>
<svg width="24px" height="24px" viewBox="0 0 24 24" version="1.1" xmlns="http://www.w3.org/2000/svg" xmlns:xlink="http://www.w3.org/1999/xlink">
    <title>card_lock</title>
    <g id="页面-1" stroke="none" stroke-width="1" fill="none" fill-rule="evenodd">
        <g id="device-pop-_Doorphone" transform="translate(-1512.000000, -310.000000)">
            <g id="card_lock" transform="translate(1512.000000, 310.000000)">
                <rect id="矩形" opacity="0.6" x="0" y="0" width="24" height="24"></rect>
                <path d="M18.9666212,10.6785682 L17.3333269,10.6785682 L17.3333269,8.53571109 C17.3333269,6.16885841 15.3931446,4.2499968 12.9999936,4.2499968 C10.6068426,4.2499968 8.66666027,6.16885841 8.66666027,8.53571109 L8.66666027,10.6785682 L7.033366,10.6785682 C6.73883475,10.6785682 6.4999936,10.9147847 6.4999936,11.2060794 L6.4999936,18.7224856 C6.4999936,19.0137803 6.73883475,19.2499968 7.033366,19.2499968 L18.9666212,19.2499968 C19.2611525,19.2499968 19.4999936,19.0137803 19.4999936,18.7224856 L19.4999936,11.2060794 C19.4999936,10.9147847 19.2611525,10.6785682 18.9666212,10.6785682 Z M9.7499936,8.53571109 C9.7499936,6.76333385 11.2079233,5.32142537 12.9999936,5.32142537 C14.7920639,5.32142537 16.2499936,6.76333385 16.2499936,8.53571109 L16.2499936,10.6785682 L9.7499936,10.6785682 L9.7499936,8.53571109 Z M18.4166603,18.1785682 L7.58332693,18.1785682 L7.58332693,11.7499968 L18.4166603,11.7499968 L18.4166603,18.1785682 Z" id="形状" fill="#99C6FF" fill-rule="nonzero"></path>
            </g>
        </g>
    </g>
</svg>