<svg width="24" height="24" viewBox="0 0 24 24" xmlns="http://www.w3.org/2000/svg"><g id="页面-1" stroke="none" stroke-width="1" fill="none" fill-rule="evenodd"><g id="详情页模块化" transform="translate(-1019 -3012)"><g id="Trigger-Status" transform="translate(1019 3012)"><circle id="椭圆形" fill="#99C6FF" cx="11.5" cy="9.5" r="1.5"/><rect id="矩形" fill="#99C6FF" x="11" y="10" width="1" height="9" rx=".5"/><rect id="矩形" fill="#99C6FF" x="9" y="18" width="5" height="1" rx=".5"/><path d="M17.33 5.194a.609.609 0 0 0-.385.26.591.591 0 0 0 .18.828c.065.043 1.643 1.09 1.643 3.696 0 2.612-1.513 3.66-1.573 3.7a.59.59 0 0 0-.171.833c.09.131.23.223.39.254.161.03.328-.001.464-.089.086-.055 2.122-1.415 2.122-4.699 0-3.289-2.118-4.647-2.209-4.703a.63.63 0 0 0-.462-.08Zm-1.923 1.82a.597.597 0 0 0-.064 1.103c.04.02.962.487.962 1.817 0 1.42-.863 1.892-.891 1.907a.593.593 0 0 0-.276.805c.15.293.52.414.825.27.066-.033 1.573-.792 1.573-2.981 0-2.114-1.594-2.868-1.662-2.9a.635.635 0 0 0-.467-.02Z" id="形状" fill-opacity=".6" fill="#549FFF" fill-rule="nonzero"/><g id="编组-7" transform="matrix(-1 0 0 1 8 5.18)" fill="#549FFF" fill-opacity=".6" fill-rule="nonzero"><path d="M2.328.014a.609.609 0 0 0-.384.26.591.591 0 0 0 .179.828c.066.043 1.644 1.091 1.644 3.696 0 2.612-1.513 3.66-1.573 3.7a.59.59 0 0 0-.171.833c.09.132.23.223.39.254.161.031.328 0 .464-.088.086-.056 2.122-1.415 2.122-4.7C4.999 1.51 2.88.15 2.79.095a.63.63 0 0 0-.462-.08Z" id="路径"/><path d="M.406 1.835a.597.597 0 0 0-.064 1.103c.04.02.962.486.962 1.816 0 1.421-.863 1.892-.891 1.907a.593.593 0 0 0-.276.805c.15.294.519.415.824.27.067-.033 1.574-.792 1.574-2.98 0-2.114-1.594-2.869-1.662-2.9a.635.635 0 0 0-.467-.021Z" id="路径"/></g></g></g></g></svg>