<svg width="24" height="24" viewBox="0 0 24 24" xmlns="http://www.w3.org/2000/svg"><g id="页面-1" stroke="none" stroke-width="1" fill="none" fill-rule="evenodd"><g id="画板" transform="translate(-557 -172)"><g id="card_Battery-status" transform="translate(557 172)"><path id="矩形" d="M0 0h24v24H0z"/><g id="电量备份-14" opacity=".6" transform="translate(4 6)" fill="#549FFF" fill-rule="nonzero"><path d="M13.458.938H1.181C.53.938 0 1.425 0 2.024v7.827c0 .599.53 1.086 1.18 1.086h12.278c.651 0 1.18-.487 1.18-1.086V2.024c0-.599-.529-1.087-1.18-1.087Zm-.236 8.695H1.417V2.242h11.805v7.391Zm2.361-6.63H17v5.87h-1.417v-5.87Zm-13.222.662h4.722V8.21H2.361V3.665Z" id="形状"/></g></g></g></g></svg>