<svg width="24" height="24" viewBox="0 0 24 24" xmlns="http://www.w3.org/2000/svg"><g id="页面-1" stroke="none" stroke-width="1" fill="none" fill-rule="evenodd"><g id="setting" transform="translate(-1025 -270)"><g id="card_more_Edit_Hover" transform="translate(1025 270)"><path d="M17.186 6.145a.473.473 0 1 1 .67.669l-6.696 6.695a.473.473 0 0 1-.67-.67l6.696-6.694Zm-.139 4.911a.473.473 0 0 1 .947 0v5.208c0 .959-.777 1.736-1.736 1.736H7.736A1.736 1.736 0 0 1 6 16.264V7.742c0-.959.777-1.736 1.736-1.736h5.05a.473.473 0 0 1 0 .947h-5.05a.79.79 0 0 0-.79.789v8.522c0 .436.354.79.79.79h8.522a.79.79 0 0 0 .79-.79v-5.208Z" id="形状" fill="#FFAB35" fill-rule="nonzero"/></g></g></g></svg>