<svg width="24" height="24" viewBox="0 0 24 24" xmlns="http://www.w3.org/2000/svg"><g id="页面-1" stroke="none" stroke-width="1" fill="none" fill-rule="evenodd"><g id="画板" transform="translate(-252 -362)"><g id="card_more_Remove" transform="translate(252 362)"><g id="移除" transform="translate(5 5)" fill="#636363" fill-rule="nonzero"><path d="M7 14c-3.852 0-7-3.148-7-7s3.148-7 7-7 7 3.148 7 7-3.148 7-7 7Zm0-1.003c3.302 0 5.997-2.695 5.997-5.997S10.302 1.003 7 1.003 1.003 3.698 1.003 7 3.698 12.997 7 12.997ZM10.496 7c0 .3-.202.502-.502.502H3.998A.476.476 0 0 1 3.496 7c0-.3.202-.502.502-.502h5.996c.308 0 .502.203.502.502Z" id="形状"/></g></g></g></g></svg>