<?xml version="1.0" encoding="UTF-8"?>
<svg width="24px" height="24px" viewBox="0 0 24 24" version="1.1" xmlns="http://www.w3.org/2000/svg" xmlns:xlink="http://www.w3.org/1999/xlink">
    <title>card_more_Replace</title>
    <g id="页面-1" stroke="none" stroke-width="1" fill="none" fill-rule="evenodd">
        <g id="画板" transform="translate(-182.000000, -362.000000)">
            <g id="card_more_Replace" transform="translate(182.000000, 362.000000)">
                <rect id="矩形" stroke="#979797" fill="#D8D8D8" opacity="0" x="0.5" y="0.5" width="23" height="23"></rect>
                <path d="M10.5243932,16.7857876 C8.95058171,16.6424796 7.90179621,15.4999212 7.8363232,13.8570952 L8.75417004,13.8570952 L7.37676534,11.5719784 L6,13.8570952 L6.91784684,13.8570952 C6.98331739,16.0718556 8.42618527,17.7856868 10.5250227,18 L10.5904932,18 C10.7214343,18 10.8523755,17.928346 10.917846,17.856692 C11.0494167,17.7140353 11.1148872,17.5713787 11.1148872,17.4287221 C10.9839461,17.0717548 10.7875344,16.8574442 10.5243932,16.7857902 L10.5243932,16.7857876 Z M13.4107634,6.21486124 C14.8530017,6.35816927 15.8369535,7.28641445 16.0333603,8.64328601 L15.180984,8.64328601 L16.5583887,10.9290516 L18,8.64263715 L17.0821532,8.64263715 C16.8196414,6.64283876 15.4428687,5.21431319 13.5410774,5.00001272 C13.4101363,5.00001272 13.2785657,5.07166674 13.1476245,5.14332075 C13.0166834,5.28532598 12.9512129,5.42863401 12.9512129,5.57129064 C12.9512129,5.92825791 13.1476245,6.14256855 13.4101363,6.21422256 L13.4107634,6.21486124 Z M17.0173121,12.1426024 L12.5583846,12.1426024 C12.2958729,12.1426024 12.0333611,12.4292185 12.0333611,12.7145317 L12.0333611,17.3570554 C12.0333611,17.7140226 12.2304023,17.9283333 12.5583846,17.9283333 L17.0173121,17.9283333 C17.2798239,17.9283333 17.5417061,17.64302 17.5417061,17.3570554 L17.5417061,12.7145317 C17.5417061,12.4285671 17.2798239,12.1432538 17.0173121,12.1432538 L17.0173121,12.1426024 Z M16.4929182,13.3574636 L16.4929182,16.8574416 L13.0173154,16.8574416 L13.0173154,13.3574636 L16.4922911,13.3574636 L16.4929182,13.3574636 Z M11.3774039,5 L6.9178493,5 C6.65596707,5 6.39345532,5.28661606 6.39345532,5.64358333 L6.39345532,10.286107 C6.39345532,10.6430742 6.58986699,10.9290389 6.9178493,10.9290389 L11.3774039,10.9290389 C11.6392861,10.9290389 11.9017979,10.6430742 11.9017979,10.286107 L11.9017979,5.64358333 C11.9017979,5.28596466 11.7047567,5.0006514 11.3774039,5.0006514 L11.3774039,5 Z M10.9178509,6.14320723 L10.9178509,9.64318521 L7.44287526,9.64318521 L7.44287526,6.14320723 L10.9178509,6.14320723 Z" id="形状" fill="#636363" fill-rule="nonzero"></path>
            </g>
        </g>
    </g>
</svg>