<svg width="24" height="24" viewBox="0 0 24 24" xmlns="http://www.w3.org/2000/svg"><g id="页面-1" stroke="none" stroke-width="1" fill="none" fill-rule="evenodd"><g id="画板" transform="translate(-147 -362)"><g id="card_more_Location" transform="translate(147 362)"><path d="M15.5 13.52c.789-1.309 1.5-3.021 1.5-3.752 0-2.439-2.463-4.591-5-4.591S7.166 7.329 7.166 9.768c0 .73.503 2.19 1.292 3.498.772 1.281 2.098 2.779 3.612 4.483 1.513-1.704 2.657-2.948 3.43-4.23Zm-2.986 5.294a.803.803 0 0 1-1.102-.07C7.804 14.776 6 11.784 6 9.767 6 6.582 8.686 4 12 4s6 2.582 6 5.768c0 2.017-1.804 5.009-5.412 8.975a.765.765 0 0 1-.074.071ZM12 12.171c1.38 0 2.5-1.076 2.5-2.403S13.38 7.365 12 7.365 9.5 8.44 9.5 9.768s1.12 2.403 2.5 2.403Zm0-1.352c-.604 0-1.094-.47-1.094-1.051 0-.58.49-1.051 1.094-1.051.604 0 1.094.47 1.094 1.051 0 .58-.49 1.051-1.094 1.051Z" id="形状" fill="#636363" fill-rule="nonzero"/></g></g></g></svg>