<svg width="24" height="24" viewBox="0 0 24 24" xmlns="http://www.w3.org/2000/svg"><g id="页面-1" stroke="none" stroke-width="1" fill="none" fill-rule="evenodd"><g id="device-pop-_Doorphone" transform="translate(-1512 -382)"><g id="card_Monitor" transform="translate(1512 382)"><path id="矩形" opacity=".6" d="M0 0h24v24H0z"/><g id="监控3" transform="translate(5 4)" fill="#99C6FF" fill-rule="nonzero"><path d="M3.883 7.858 1.747 5.587C1.428 5.247 1.376 4.362 1.67 4l.09.133 8.121 8.236-.251.18c-.298.181-.64.547-.94.368L3.881 7.863l.002-.005Zm1.077 2.78-.197.671c-.133.224-.354.784-.61.839a.92.92 0 0 1-.206.023l-3.037.171v1.026c0 .516.09 1.494-.429 1.494-.518 0-.481-.978-.481-1.494V9.636c0-.515-.037-.966.481-.966s.43.45.43.966v1.374l2.466-.17.57-1.202 1.013 1ZM4.952.348a.942.942 0 0 1 1.39-.08L14.72 8.48a.93.93 0 0 1-.169 1.46l-3.087 1.877-8.671-8.8L4.952.348Z" id="形状"/></g></g></g></g></svg>