<?xml version="1.0" encoding="UTF-8"?>
<svg width="24px" height="24px" viewBox="0 0 24 24" version="1.1" xmlns="http://www.w3.org/2000/svg" xmlns:xlink="http://www.w3.org/1999/xlink">
    <title>close</title>
    <g id="页面-1" stroke="none" stroke-width="1" fill="none" fill-rule="evenodd">
        <g id="Alarm-logs、Notification" transform="translate(-386.000000, -113.000000)">
            <g id="close" transform="translate(386.000000, 113.000000)">
                <rect id="bg" fill-opacity="0" fill="#00AAEE" x="0" y="0" width="24" height="24"></rect>
                <path d="M20.8524923,4.55334861 L20.6416811,4.69637318 L4.70229737,20.7585619 C4.33549561,21.1281631 3.66379393,21.0505791 3.29701792,20.6809519 C2.95176851,20.333069 2.89295663,19.742937 3.19757332,19.3711561 L3.25847091,19.3036657 L10.7300256,11.8499371 L3.59751469,4.66256312 C3.25226528,4.31468024 3.17838994,3.74188137 3.48300663,3.37004862 L3.54390421,3.3025842 C3.88915363,2.95464942 4.45548832,2.91481947 4.82442729,3.22175663 L4.89142751,3.2831752 L12.02399,10.4704972 L19.1978804,3.24145105 C19.5646821,2.87182387 20.236358,2.9494339 20.6031855,3.31903514 C20.948435,3.66694396 21.157109,4.18154181 20.8524923,4.55334861 Z M20.6643603,19.3440205 C21.0240064,19.7042521 21.1497791,20.3094341 20.7640544,20.6957867 C20.4010254,21.0594066 19.8444398,21.0995616 19.480401,20.8027486 L19.4145104,20.743123 L17.1326534,18.4575514 L14.3356133,15.655958 C13.9760177,15.295777 13.8502198,14.6905697 14.2359192,14.3042425 C14.5989482,13.9405972 15.155559,13.900417 15.5195726,14.1972806 L15.5854884,14.2569061 L20.6643603,19.3440458 L20.6643603,19.3440205 Z" id="形状" fill="#717171" fill-rule="nonzero"></path>
            </g>
        </g>
    </g>
</svg>