<svg width="24" height="24" viewBox="0 0 24 24" xmlns="http://www.w3.org/2000/svg"><g id="页面-1" stroke="none" stroke-width="1" fill="none" fill-rule="evenodd"><g id="Alarm-logs、Notification" transform="translate(-386 -113)"><g id="close" transform="translate(386 113)"><path id="bg" fill-opacity="0" fill="#0AE" d="M0 0h24v24H0z"/><path d="m20.852 4.553-.21.143L4.702 20.76c-.367.37-1.038.292-1.405-.078-.345-.348-.404-.938-.1-1.31l.061-.067 7.472-7.454-7.132-7.187c-.346-.348-.42-.921-.115-1.293l.06-.067c.346-.348.912-.388 1.281-.081l.067.061 7.133 7.187 7.174-7.229c.367-.37 1.038-.292 1.405.078.345.348.554.863.25 1.234Zm-.188 14.791c.36.36.486.965.1 1.352-.363.363-.92.404-1.284.107l-.065-.06-2.282-2.285-2.797-2.802c-.36-.36-.486-.965-.1-1.352.363-.363.92-.404 1.284-.107l.065.06 5.08 5.087Z" id="形状" fill="#717171" fill-rule="nonzero"/></g></g></g></svg>