<?xml version="1.0" encoding="UTF-8"?>
<svg width="16px" height="16px" viewBox="0 0 16 16" version="1.1" xmlns="http://www.w3.org/2000/svg" xmlns:xlink="http://www.w3.org/1999/xlink">
    <title>链接</title>
    <defs>
        <linearGradient x1="72.0967468%" y1="15.6941273%" x2="13.1077163%" y2="100%" id="conactive-1">
            <stop stop-color="#00DA20" offset="0%"></stop>
            <stop stop-color="#22A63D" offset="100%"></stop>
        </linearGradient>
    </defs>
    <g id="页面-1" stroke="none"  fill="#22A63D" stroke-width="1" fill-rule="evenodd">
        <g id="Devices-line" transform="translate(-516.000000, -252.000000)" fill="#22A63D">
            <g id="链接" transform="translate(516.000000, 252.000000)">
                <path d="M9.20514804,6.16508596 C9.17057782,6.13200694 8.65748283,6.05496176 8.36430979,6.36728765 C8.07113676,6.67961355 8.21899643,7.05067716 8.24693238,7.08399677 C8.30093295,7.14838605 8.79951407,7.58389496 8.86621837,7.65059743 L8.92975663,7.71415456 C9.59921205,8.42117736 9.49681398,9.46534423 8.69802902,10.2641239 L5.28943906,13.6716095 C4.49067393,14.4693818 3.19206186,14.4693818 2.393265,13.6716095 L2.32921946,13.6075247 C1.53039484,12.8087767 1.53039484,11.5092407 2.32921946,10.7124242 L3.83510424,9.20707939 C4.02831671,9.05372638 4.15234836,8.81702979 4.15234836,8.55123524 C4.15234836,8.08892264 3.77757223,7.71415456 3.31524971,7.71415456 C3.14078835,7.71415456 2.97884874,7.76756532 2.84474884,7.85886298 L2.82737778,7.87122134 C2.76810103,7.91383628 2.71450648,7.96381772 2.66821751,8.02015053 L1.10327966,9.48448349 C-0.367759888,10.9565068 -0.367759888,13.3640185 1.10327966,14.8339874 L1.16681792,14.897504 C2.63785747,16.3674987 5.04437382,16.3674987 6.51542527,14.897504 L9.922984,11.4889873 C11.3919948,10.0180586 11.2384673,8.08066284 9.76947587,6.61065434 L9.70689128,6.54813198 C9.58434827,6.42565071 9.31618715,6.21562986 9.20514804,6.16508596 Z M14.8968552,1.16679287 L14.8333169,1.10325598 C13.3622972,-0.367751992 10.9557809,-0.367751992 9.48472942,1.10325598 L6.07717069,4.51175292 C4.60613114,5.98276088 4.52511909,8.10697552 5.99615983,9.57894726 L6.05868354,9.64051576 C6.12548897,9.70729954 6.1948312,9.77026829 6.26561515,9.83065984 C6.31685575,9.88788563 6.37704553,9.93687275 6.4439527,9.97561179 C6.44446004,9.97601764 6.44498767,9.9764438 6.44549499,9.97684966 L6.44571821,9.97664673 C6.55235937,10.0379717 6.67592559,10.0732408 6.80779053,10.0732408 C7.2096381,10.0732408 7.5353858,9.74745843 7.5353858,9.34566113 C7.5353858,9.23224432 7.50941042,9.1248961 7.46310103,9.02919325 L7.46310103,9.02919325 C7.36691085,8.81321734 7.1868478,8.68173994 7.06230847,8.55718147 L6.99976454,8.49565362 C6.20099941,7.69690564 6.50432407,6.53645997 7.30308921,5.7377219 L10.7126707,2.33019666 C11.5094666,1.53140902 12.8085209,1.53140902 13.6073178,2.33019666 L13.6708967,2.39271902 C14.4696817,3.1915265 14.4696817,4.49157816 13.6708967,5.2893465 L12.1699439,6.7912824 C11.9657529,6.94256568 11.8333387,7.18522675 11.8333387,7.45883656 C11.8333387,7.91739323 12.2050906,8.28915895 12.6636789,8.28915895 C12.8232856,8.28915895 12.9723203,8.2440277 13.0988685,8.16598129 C13.0998223,8.16760471 13.1007152,8.16910638 13.101669,8.17075011 L13.1249453,8.14926 C13.1966617,8.10124715 13.2603624,8.0422963 13.3139165,7.97490372 L14.8957782,6.51530038 C16.3678946,5.04431224 16.3678946,2.6378079 14.8968538,1.16680787 L14.8968552,1.16679287 Z" id="形状结合"></path>
            </g>
        </g>
    </g>
</svg>