<svg width="16" height="16" viewBox="0 0 16 16" xmlns="http://www.w3.org/2000/svg"><defs><linearGradient x1="72.097%" y1="15.694%" x2="13.108%" y2="100%" id="conactive-1"><stop stop-color="#00DA20" offset="0%"/><stop stop-color="#22A63D" offset="100%"/></linearGradient></defs><g id="页面-1" stroke="none" fill="#22A63D" stroke-width="1" fill-rule="evenodd"><g id="Devices-line" transform="translate(-516 -252)" fill="#22A63D"><g id="链接" transform="translate(516 252)"><path d="M9.205 6.165c-.034-.033-.548-.11-.84.202a.636.636 0 0 0-.118.717c.054.064.553.5.62.567l.063.063c.67.707.567 1.751-.232 2.55l-3.409 3.408a2.052 2.052 0 0 1-2.896 0l-.064-.064a2.048 2.048 0 0 1 0-2.896l1.506-1.505a.835.835 0 0 0-.52-1.493.833.833 0 0 0-.47.145l-.018.012a.842.842 0 0 0-.159.15L1.103 9.483a3.794 3.794 0 0 0 0 5.35l.064.064a3.795 3.795 0 0 0 5.348 0l3.408-3.409c1.469-1.47 1.315-3.408-.154-4.878l-.062-.063c-.123-.122-.39-.332-.502-.383Zm5.692-4.998-.064-.064a3.793 3.793 0 0 0-5.348 0L6.077 4.512c-1.47 1.47-1.552 3.595-.08 5.067l.062.062c.066.066.136.13.207.19a.731.731 0 0 0 .178.145h.001a.728.728 0 0 0 1.017-.947h.001c-.096-.216-.276-.347-.4-.472L7 8.496c-.799-.8-.496-1.96.303-2.758l3.41-3.408a2.048 2.048 0 0 1 2.894 0l.064.063a2.05 2.05 0 0 1 0 2.896L12.17 6.791a.83.83 0 0 0 .929 1.375c0 .002.002.003.003.005l.023-.022a.835.835 0 0 0 .189-.174l1.582-1.46a3.792 3.792 0 0 0 0-5.348Z" id="形状结合"/></g></g></g></svg>