<svg width="54" height="54" viewBox="0 0 54 54" xmlns="http://www.w3.org/2000/svg" xmlns:xlink="http://www.w3.org/1999/xlink"><defs><filter x="-9.4%" y="-9.4%" width="118.8%" height="118.8%" filterUnits="objectBoundingBox" id="condition-filter-2"><feGaussianBlur stdDeviation="4" in="SourceAlpha" result="shadowBlurInner1"/><feOffset dy="-1" in="shadowBlurInner1" result="shadowOffsetInner1"/><feComposite in="shadowOffsetInner1" in2="SourceAlpha" operator="arithmetic" k2="-1" k3="1" result="shadowInnerInner1"/><feColorMatrix values="0 0 0 0 1 0 0 0 0 1 0 0 0 0 1 0 0 0 0.143078357 0" in="shadowInnerInner1"/></filter><filter x="-11.8%" y="-11.8%" width="123.7%" height="123.7%" filterUnits="objectBoundingBox" id="condition-filter-4"><feGaussianBlur stdDeviation="4" in="SourceAlpha" result="shadowBlurInner1"/><feOffset dy="-1" in="shadowBlurInner1" result="shadowOffsetInner1"/><feComposite in="shadowOffsetInner1" in2="SourceAlpha" operator="arithmetic" k2="-1" k3="1" result="shadowInnerInner1"/><feColorMatrix values="0 0 0 0 1 0 0 0 0 1 0 0 0 0 1 0 0 0 0.143078357 0" in="shadowInnerInner1"/></filter><rect id="condition-1" x="3" y="3" width="48" height="48" rx="8"/><rect id="path-3" x="8" y="8" width="38" height="38" rx="8"/></defs><g id="页面-1" stroke="none" stroke-width="1" fill="none" fill-rule="evenodd"><g id="add-Scenes_test、delete" transform="translate(-1670 -184)"><g id="Condition" transform="translate(1670 184)"><g id="矩形备份-9" transform="rotate(45 27 27)"><use fill="#FFF" xlink:href="#path-3"/><use fill="#000" filter="url(#condition-filter-4)" xlink:href="#path-3"/></g><path d="M35.087 17.482a1.02 1.02 0 0 1 .936.58.987.987 0 0 1-.132 1.091l-5.954 7.134v1.37H27.88v-1.73a.99.99 0 0 1 .245-.64l4.783-5.804H19.414l4.977 5.783a.99.99 0 0 1 .244.66v6.827l1.18.91a.99.99 0 0 1 .174 1.431c-.17.213-.419.35-.692.38a1.03 1.03 0 0 1-.764-.21l-1.577-1.22a.995.995 0 0 1-.397-.8v-6.937l-6.187-7.144a1.046 1.046 0 0 1-.153-1.09c.164-.359.526-.59.926-.59h17.942Z" id="形状结合" fill="#646C9A" fill-rule="nonzero"/><path d="M28.118 33.437c-.546 0-.988-.468-.988-1.046 0-.578.442-1.047.988-1.047h8.024c.546 0 .988.469.988 1.047s-.442 1.046-.988 1.046h-8.024Zm2.966-4.952c0-.554.461-1.003 1.03-1.003.57 0 1.032.45 1.032 1.003v7.994c0 .554-.462 1.003-1.031 1.003-.57 0-1.031-.449-1.031-1.003v-7.994Z" id="形状" fill="#5B73FF" fill-rule="nonzero"/></g></g></g></svg>