<svg width="24" height="24" viewBox="0 0 24 24" xmlns="http://www.w3.org/2000/svg"><g id="页面-1" stroke="none" stroke-width="1" fill="none" fill-rule="evenodd"><g id="device-pop-_Plug" transform="translate(-1500 -120)"><g id="Details" transform="translate(1500 120)"><path id="bg" fill-opacity="0" fill="#0AE" d="M0 0h24v24H0z"/><g id="形状-3" transform="translate(2 2)" fill="#717171" fill-rule="nonzero"><path d="M10 18.5a8.5 8.5 0 0 0 0-17 8.5 8.5 0 0 0 0 17Zm0 1.5C4.477 20 0 15.523 0 10S4.477 0 10 0s10 4.477 10 10-4.477 10-10 10Zm0-12.5A1.25 1.25 0 0 1 10 5a1.25 1.25 0 0 1 0 2.5Zm-.75 1.25h1.5v7.5h-1.5v-7.5Z" id="形状"/></g></g></g></g></svg>