<?xml version="1.0" encoding="UTF-8"?>
<svg width="24px" height="24px" viewBox="0 0 24 24" version="1.1" xmlns="http://www.w3.org/2000/svg" xmlns:xlink="http://www.w3.org/1999/xlink">
    <title>Details</title>
    <g id="页面-1" stroke="none" stroke-width="1" fill="none" fill-rule="evenodd">
        <g id="device-pop-_Plug" transform="translate(-1500.000000, -120.000000)">
            <g id="Details" transform="translate(1500.000000, 120.000000)">
                <rect id="bg" fill-opacity="0" fill="#00AAEE" x="0" y="0" width="24" height="24"></rect>
                <g id="形状-3" transform="translate(2.000000, 2.000000)" fill="#717171" fill-rule="nonzero">
                    <path d="M9.99999973,18.5 L9.99999973,18.5 C14.6944144,18.5 18.4999997,14.6944141 18.4999997,10 C18.4999997,5.30558594 14.6944144,1.5 9.99999973,1.5 L9.99999973,1.5 C5.30558575,1.5 1.49999973,5.30558594 1.49999973,10 C1.49999973,14.6944141 5.30558575,18.5 9.99999973,18.5 L9.99999973,18.5 Z M10,20 L10,20 C4.47714854,20 0,15.5228516 0,10 C0,4.47714844 4.47714854,0 10,0 L10,0 C15.5228515,0 20,4.47714844 20,10 C20,15.5228516 15.5228515,20 10,20 L10,20 Z M10.0000007,7.5 L10.0000006,7.5 C9.30964512,7.5 8.75000057,6.94035547 8.75000057,6.25 C8.75000057,5.55964453 9.30964512,5 10.0000006,5 L10.0000005,5 C10.690356,5 11.2500006,5.55964453 11.2500006,6.25 C11.2500006,6.94035547 10.690356,7.5 10.0000005,7.5 L10.0000007,7.5 Z M9.25000064,8.75 L10.7500006,8.75 L10.7500006,16.25 L9.25000064,16.25 L9.25000064,8.75 L9.25000064,8.75 Z" id="形状"></path>
                </g>
            </g>
        </g>
    </g>
</svg>