<?xml version="1.0" encoding="UTF-8"?>
<svg width="20px" height="20px" viewBox="0 0 20 20" version="1.1" xmlns="http://www.w3.org/2000/svg" xmlns:xlink="http://www.w3.org/1999/xlink">
    <title>music备份</title>
    <g id="页面-1" stroke="none" stroke-width="1" fill="none" fill-rule="evenodd">
        <g id="device-pop-_music" transform="translate(-1634.000000, -423.000000)">
            <g id="music备份" transform="translate(1634.000000, 423.000000)">
                <rect id="矩形" stroke="#979797" fill="#D8D8D8" opacity="0" x="0.5" y="0.5" width="19" height="19"></rect>
                <path d="M16,4.0227992 L16,5.98537005 C15.9998398,6.44137015 15.6922484,6.84217829 15.246092,6.96764914 L10.2799608,8.36192013 L10.2799608,14.4223878 C10.2799608,16.3505817 8.72530042,17.9318838 6.76466616,17.9979577 L6.63992507,18 C4.62959216,18 3,16.3981546 3,14.422309 C3,12.4464539 4.62979691,10.8447618 6.64012003,10.8448097 C7.3840123,10.8448298 8.11003997,11.0688583 8.72045849,11.4867348 L8.71993846,5.22287077 L8.75373882,5.22287077 C8.84729427,4.87379814 9.12124379,4.5991077 9.47446489,4.50019575 L14.6745006,3.03951071 C15.2267623,2.88459793 15.8022438,3.19897917 15.9599514,3.74174309 C15.9865422,3.83311572 16,3.92772663 16,4.0227992 Z" id="路径" fill="#000000" fill-rule="nonzero"></path>
            </g>
        </g>
    </g>
</svg>