<?xml version="1.0" encoding="UTF-8"?>
<svg width="24px" height="24px" viewBox="0 0 24 24" version="1.1" xmlns="http://www.w3.org/2000/svg" xmlns:xlink="http://www.w3.org/1999/xlink">
    <title>Device</title>
    <defs>
        <linearGradient x1="4.36692629%" y1="0%" x2="91.4347454%" y2="89.0579578%" id="device-default-1">
            <stop stop-color="#0569CB" offset="0.0448690878%"></stop>
            <stop stop-color="#5BEDFF" offset="100%"></stop>
        </linearGradient>
    </defs>
    <g id="页面-1" stroke="none" stroke-width="1" fill="none" fill-rule="evenodd">
        <g id="Scenes_Add-condition" transform="translate(-792.000000, -494.000000)">
            <g id="Device" transform="translate(792.000000, 494.000000)">
                <rect id="矩形" fill="url(#device-default-1)" opacity="0" x="0" y="0" width="24" height="24" rx="12"></rect>
                <path d="M7.4443,3.67705762 L17.5557,3.67705762 C18.35325,3.67705762 19,4.31495887 19,4.88950429 L19,19.4613085 C19,20.0358539 18.35325,20.6770576 17.5557,20.6770576 L7.4443,20.6770576 C6.64675,20.6770576 6,20.0358539 6,19.4613085 L6,4.88950429 C6,4.31495887 6.64675,3.67705762 7.4443,3.67705762 Z M18,19 L18,5.35411524 C18,4.98080182 17.692,4.67705762 17.3125,4.67705762 L7.6875,4.67705762 C7.308,4.67705762 7,4.98018067 7,5.35411524 L7,19 C7,19.3739346 7.308,19.6770576 7.6875,19.6770576 L17.3125,19.6770576 C17.692,19.6770576 18,19.3739346 18,19 Z" id="形状" fill="#99C6FF" fill-rule="nonzero"></path>
                <path d="M13.3714286,17.4 C13.3714286,18.0154026 12.8725455,18.5142857 12.2571429,18.5142857 C11.6417403,18.5142857 11.1428571,18.0154026 11.1428571,17.4 C11.1428571,16.7845974 11.6417403,16.2857143 12.2571428,16.2857143 C12.8725455,16.2857143 13.3714286,16.7845974 13.3714286,17.4 Z" id="路径" fill="#99C6FF" fill-rule="nonzero"></path>
                <path d="M13.7142858,6 C14.092995,6 14.4,6.27411161 14.4,6.6122449 C14.4,6.95037819 14.092995,7.2244898 13.7142857,7.2244898 L10.9714286,7.2244898 C10.5927193,7.2244898 10.2857143,6.95037819 10.2857143,6.6122449 C10.2857143,6.27411161 10.5927193,6 10.9714286,6 L13.7142858,6 Z" id="路径" fill="#99C6FF" fill-rule="nonzero"></path>
            </g>
        </g>
    </g>
</svg>