<svg width="24" height="24" viewBox="0 0 24 24" xmlns="http://www.w3.org/2000/svg"><g id="页面-1" stroke="none" stroke-width="1" fill="none" fill-rule="evenodd"><g id="设备样式补充" transform="translate(-1512 -454)"><g id="light" transform="translate(1512 454)" fill="#98C5FF" fill-rule="nonzero"><path d="M17 9.748c0 1.455-.626 2.58-1.823 3.484l-1.125.607v2.157h-3.99v-2.157l-.956-.38C7.91 12.559 7 11.204 7 9.75 7.002 7.13 9.245 5 12.001 5 14.757 5 17 7.13 17 9.748ZM9.5 19h5v1h-5v-1ZM6 9.81c0 1.263.589 2.696 1.498 3.65.413.432 1.009.56 1.44.89v2.256c0 .504.427.917.948.917h4.343c.52 0 .948-.413.948-.917V14.35c.617-.474 1.315-.77 1.823-1.443.628-.831 1-2.082 1-3.097C18 6.6 15.317 4 12.001 4S6 6.6 6 9.81Z" id="形状"/><path d="M13.093 11.203c-.666.512-.081 1.533.834.824.469-.364 1.036-1.088 1.2-1.81.134-.588-.6-.914-.983-.337-.35.53-.385.811-1.051 1.323Z" id="路径-3"/></g></g></g></svg>