<svg width="24" height="24" viewBox="0 0 24 24" xmlns="http://www.w3.org/2000/svg"><defs><linearGradient x1="4.367%" y1="0%" x2="91.435%" y2="89.058%" id="device-default-1"><stop stop-color="#0569CB" offset=".045%"/><stop stop-color="#5BEDFF" offset="100%"/></linearGradient></defs><g id="页面-1" stroke="none" stroke-width="1" fill="none" fill-rule="evenodd"><g id="Scenes_Add-condition" transform="translate(-792 -494)"><g id="Device" transform="translate(792 494)" fill="#99C6FF" fill-rule="nonzero"><path d="M7.444 3.677h10.112c.797 0 1.444.638 1.444 1.213V19.46c0 .575-.647 1.216-1.444 1.216H7.444c-.797 0-1.444-.641-1.444-1.216V4.89c0-.575.647-1.213 1.444-1.213ZM18 19V5.354a.683.683 0 0 0-.688-.677H7.688A.682.682 0 0 0 7 5.354V19c0 .374.308.677.688.677h9.625c.379 0 .687-.303.687-.677Z" id="形状"/><path d="M13.371 17.4a1.114 1.114 0 1 1-2.228 0 1.114 1.114 0 0 1 2.228 0ZM13.714 6c.379 0 .686.274.686.612 0 .338-.307.612-.686.612h-2.743c-.378 0-.685-.274-.685-.612 0-.338.307-.612.685-.612h2.743Z" id="路径"/></g></g></g></svg>