<?xml version="1.0" encoding="UTF-8"?>
<svg width="24px" height="24px" viewBox="0 0 24 24" version="1.1" xmlns="http://www.w3.org/2000/svg" xmlns:xlink="http://www.w3.org/1999/xlink">
    <title>light</title>
    <g id="页面-1" stroke="none" stroke-width="1" fill="none" fill-rule="evenodd">
        <g id="设备样式补充" transform="translate(-1512.000000, -454.000000)">
            <g id="light" transform="translate(1512.000000, 454.000000)">
                <rect id="矩形" stroke="#979797" fill="#D8D8D8" opacity="0" x="0.5" y="0.5" width="23" height="23"></rect>
                <path d="M17,9.7480871 C17,11.2034044 16.3741899,12.3283426 15.1768881,13.2321954 L14.0524992,13.8394508 L14.0524992,15.9958764 L10.0624522,15.9958764 L10.0624522,13.8394508 L9.10644265,13.4596039 C7.9091408,12.5580394 7,11.2034044 7,9.7480871 C7.00240906,7.13034655 9.24524211,5 12.0012045,5 C14.7571669,5 17,7.13034655 17,9.7480871 Z M9.5,19 L14.5,19 L14.5,20 L9.5,20 L9.5,19 Z M6,9.80967325 C6,11.0731739 6.58902544,12.506019 7.49827817,13.4596039 C7.91104085,13.8924915 8.50671532,14.0191072 8.93806334,14.3504148 L8.93806334,16.6056006 C8.93806334,17.1096362 9.36508522,17.5230338 9.88573222,17.5230338 L14.2292192,17.5230338 C14.7498662,17.5230338 15.1768881,17.1096362 15.1768881,16.6056006 L15.1768881,14.3504148 C15.7935133,13.8760162 16.4923431,13.5792853 17,12.9070413 C17.6278623,12.0756203 18,10.8254477 18,9.80967325 C18,6.59976246 15.3168411,4 12.0011418,4 C8.68544244,4 6,6.59976246 6,9.80967325 Z" id="形状" fill="#98C5FF" fill-rule="nonzero"></path>
                <path d="M13.0927952,11.2027547 C12.4270875,11.7145381 13.0115848,12.7363569 13.9265479,12.0270739 C14.39591,11.6632225 14.9634721,10.939444 15.127285,10.2174086 C15.2607695,9.62905119 14.5264322,9.30323329 14.1438081,9.88041748 C13.7932409,10.4092441 13.7585029,10.6909712 13.0927952,11.2027547 Z" id="路径-3" fill="#98C5FF" fill-rule="nonzero"></path>
            </g>
        </g>
    </g>
</svg>