<?xml version="1.0" encoding="UTF-8"?>
<svg width="16px" height="16px" viewBox="0 0 16 16" version="1.1" xmlns="http://www.w3.org/2000/svg" xmlns:xlink="http://www.w3.org/1999/xlink">
    <title>链接失败</title>
    <g id="页面-1" stroke="none" stroke-width="1" fill="none" fill-rule="evenodd">
        <g id="Devices-line" transform="translate(-516.000000, -312.000000)" fill="#FF0000">
            <g id="链接失败" transform="translate(516.000000, 312.000000)">
                <path d="M3.31524971,7.71415456 C3.77757223,7.71415456 4.15234836,8.08892264 4.15234836,8.55123524 C4.15234836,8.81702979 4.02831671,9.05372638 3.83510424,9.20707939 L3.83510424,9.20707939 L2.32921946,10.7124242 C1.53039484,11.5092407 1.53039484,12.8087767 2.32921946,13.6075247 L2.32921946,13.6075247 L2.393265,13.6716095 C3.19206186,14.4693818 4.49067393,14.4693818 5.28943906,13.6716095 L5.28943906,13.6716095 L7.511,11.45 L8.736,12.675 L6.51542527,14.897504 C5.09509973,16.3168092 2.80271179,16.3657507 1.32225473,15.0443287 L1.16681792,14.897504 L1.10327966,14.8339874 C-0.367759888,13.3640185 -0.367759888,10.9565068 1.10327966,9.48448349 L1.10327966,9.48448349 L2.66821751,8.02015053 C2.71450648,7.96381772 2.76810103,7.91383628 2.82737778,7.87122134 L2.82737778,7.87122134 L2.84474884,7.85886298 C2.97884874,7.76756532 3.14078835,7.71415456 3.31524971,7.71415456 Z M9.48472942,1.10325598 C10.9557809,-0.367751992 13.3622972,-0.367751992 14.8333169,1.10325598 L14.8333169,1.10325598 L14.8968538,1.16680787 C16.3678946,2.6378079 16.3678946,5.04431224 14.8957782,6.51530038 L14.8957782,6.51530038 L13.3139165,7.97490372 C13.2603624,8.0422963 13.1966617,8.10124715 13.1249453,8.14926 L13.1249453,8.14926 L13.101669,8.17075011 C13.1007152,8.16910638 13.0998223,8.16760471 13.0988685,8.16598129 C12.9723203,8.2440277 12.8232856,8.28915895 12.6636789,8.28915895 C12.2050906,8.28915895 11.8333387,7.91739323 11.8333387,7.45883656 C11.8333387,7.18522675 11.9657529,6.94256568 12.1699439,6.7912824 L12.1699439,6.7912824 L13.6708967,5.2893465 C14.4696817,4.49157816 14.4696817,3.1915265 13.6708967,2.39271902 L13.6708967,2.39271902 L13.6073178,2.33019666 C12.8085209,1.53140902 11.5094666,1.53140902 10.7126707,2.33019666 L10.7126707,2.33019666 L8.322,4.719 L7.095,3.492 Z" id="形状结合"></path>
                <path d="M0.456907907,6.84741294 L14.6791301,6.84741294 C15.1700499,6.84741294 15.568019,7.24538205 15.568019,7.73630183 C15.568019,8.22722161 15.1700499,8.62519072 14.6791301,8.62519072 L0.456907907,8.62519072 C-0.0340118705,8.62519072 -0.431980982,8.22722161 -0.431980982,7.73630183 C-0.431980982,7.24538205 -0.0340118705,6.84741294 0.456907907,6.84741294 Z" id="矩形" transform="translate(7.568019, 7.736302) rotate(-315.000000) translate(-7.568019, -7.736302) "></path>
            </g>
        </g>
    </g>
</svg>