<svg width="16" height="16" viewBox="0 0 16 16" xmlns="http://www.w3.org/2000/svg"><g id="页面-1" stroke="none" stroke-width="1" fill="none" fill-rule="evenodd"><g id="Devices-line" transform="translate(-516 -312)" fill="red"><g id="链接失败" transform="translate(516 312)"><path d="M3.315 7.714a.837.837 0 0 1 .52 1.493L2.33 10.712a2.048 2.048 0 0 0 0 2.896l.064.064a2.052 2.052 0 0 0 2.896 0l2.222-2.222 1.225 1.225-2.22 2.223a3.796 3.796 0 0 1-5.194.146l-.155-.146-.064-.064a3.794 3.794 0 0 1 0-5.35L2.668 8.02a.842.842 0 0 1 .16-.149l.017-.012a.833.833 0 0 1 .47-.145Zm6.17-6.61a3.793 3.793 0 0 1 5.348 0l.064.063a3.792 3.792 0 0 1-.001 5.348l-1.582 1.46a.835.835 0 0 1-.19.174l-.022.022-.003-.005a.83.83 0 0 1-.929-1.375l1.5-1.502a2.05 2.05 0 0 0 0-2.896l-.063-.063a2.048 2.048 0 0 0-2.894 0L8.322 4.72 7.095 3.492Z" id="形状结合"/><path d="M.457 6.847h14.222a.889.889 0 1 1 0 1.778H.457a.889.889 0 1 1 0-1.778Z" id="矩形" transform="rotate(45 7.568 7.736)"/></g></g></g></svg>