<svg width="48" height="48" viewBox="0 0 48 48" xmlns="http://www.w3.org/2000/svg"><g id="页面-1" stroke="none" stroke-width="1" fill="none" fill-rule="evenodd"><g id="画板备份-2" transform="translate(-268 -451)"><g id="门磁传感器_Disabled" transform="translate(268 451)"><rect id="矩形备份-28" fill="#F7FAFF" x="0" y="0" width="48" height="48" rx="24"/><path d="M31.773 11.733c1.219 0 1.808.748 1.808 1.665v21.204c0 .917-.613 1.665-1.808 1.665H21.142c-1.195 0-1.809-.748-1.809-1.665V13.398c0-.917.614-1.665 1.809-1.665Zm-15.075 1.882c.585 0 1.049.459 1.049.99v18.887c0 .555-.464.99-1.049.99h-2.316c-.585 0-1.049-.46-1.049-.99V14.605c0-.555.464-.99 1.049-.99h2.316Zm9.635 6.118c-2.197 0-4 1.803-4 4 0 2.198 1.803 4 4 4 2.198 0 4-1.774 4-4 0-2.197-1.802-4-4-4Zm0 1c1.667 0 3 1.367 3 3 0 1.667-1.333 3-3 3-1.666 0-3-1.333-3-3 0-1.666 1.334-3 3-3Z" id="形状结合" fill="#9F9F9F" fill-rule="nonzero"/></g></g></g></svg>