<svg width="24" height="24" viewBox="0 0 24 24" xmlns="http://www.w3.org/2000/svg"><g id="页面-1" stroke="none" stroke-width="1" fill="none" fill-rule="evenodd"><g id="画板" transform="translate(-573 -303)"><g id="Door-Phone_card_lock" transform="translate(573 303)"><path d="M16.774 9.388H7.228C6.552 9.388 6 9.964 6 10.669v7.05C6 18.422 6.552 19 7.228 19h9.546c.674 0 1.226-.578 1.226-1.281v-7.05c0-.705-.552-1.281-1.226-1.281Zm-3.754 3.576.004 2.204c0 .655-.086 1.169-.993 1.169-.906 0-.984-.531-.984-1.184l-.023-2.189s.101-.686 1.007-.686c.907 0 .989.686.989.686ZM9.76 9.309V6.757c.002-1.38 1.037-2.503 2.307-2.505 1.273.002 2.308 1.124 2.309 2.505V9.31h1.154V6.757C15.53 4.687 13.977 3.001 12.069 3c-1.907.001-3.461 1.686-3.461 3.757V9.31h1.153Z" id="形状" fill="#4E4F5B" fill-rule="nonzero"/></g></g></g></svg>