<?xml version="1.0" encoding="UTF-8"?>
<svg width="24px" height="24px" viewBox="0 0 24 24" version="1.1" xmlns="http://www.w3.org/2000/svg" xmlns:xlink="http://www.w3.org/1999/xlink">
    <title>Door Phone_card_View</title>
    <g id="页面-1" stroke="none" stroke-width="1" fill="none" fill-rule="evenodd">
        <g id="画板" transform="translate(-601.000000, -303.000000)">
            <g id="Door-Phone_card_View" transform="translate(601.000000, 303.000000)">
                <path d="M12.5,6 C15.616711,6 18.3972431,8.00546953 20.8354606,11.923233 L20.8354607,11.9232331 C21.0548465,12.2752125 21.0548465,12.7247896 20.8354606,13.076767 C18.397263,16.9945447 15.6167109,19 12.5,19 C9.38328903,19 6.60275686,16.9945305 4.16453935,13.076767 L4.16453934,13.076767 C3.94515355,12.7247875 3.94515355,12.2752105 4.16453936,11.923233 C6.60273695,8.00545534 9.38328904,6 12.5,6 L12.5,6 Z M12.5,8.60000283 C10.3875621,8.60000283 8.67503259,10.3461221 8.67503259,12.5000071 C8.67503259,14.653886 10.3875562,16.4000113 12.5,16.4000113 C14.6124379,16.4000113 16.3249674,14.6538921 16.3249674,12.5000071 C16.3249674,10.3461282 14.6124438,8.60000283 12.5,8.60000283 Z M12.5,15.1000099 C13.9082255,15.1000099 15.0499783,13.9358587 15.0499783,12.5000071 C15.0499783,11.0641555 13.9082255,9.90000425 12.5,9.90000425 C11.0917745,9.90000425 9.95002173,11.0641555 9.95002173,12.5000071 C9.95002173,13.9358587 11.0917745,15.1000099 12.5,15.1000099 Z" id="形状" fill="#4E4F5B" fill-rule="nonzero"></path>
                <rect id="矩形" fill="#FFFFFF" opacity="0" x="0" y="0" width="24" height="24"></rect>
            </g>
        </g>
    </g>
</svg>