<?xml version="1.0" encoding="UTF-8"?>
<svg width="24px" height="24px" viewBox="0 0 24 24" version="1.1" xmlns="http://www.w3.org/2000/svg" xmlns:xlink="http://www.w3.org/1999/xlink">
    <title>Door Phone_card_lock</title>
    <g id="页面-1" stroke="none" stroke-width="1" fill="none" fill-rule="evenodd">
        <g id="画板" transform="translate(-573.000000, -303.000000)">
            <g id="Door-Phone_card_lock" transform="translate(573.000000, 303.000000)">
                <rect id="矩形" fill="#FFFFFF" opacity="0" x="0" y="0" width="24" height="24"></rect>
                <path d="M16.7743082,9.38782626 L7.22772277,9.38782626 C6.55242447,9.38782626 6,9.96439462 6,10.669207 L6,17.7186192 C6,18.4223718 6.55242447,19 7.22772277,19 L16.7743082,19 C17.4475755,19 18,18.4223718 18,17.7186192 L18,10.669207 C18,9.96439462 17.4475755,9.38782626 16.7743082,9.38782626 Z M13.0196268,12.9639726 L13.0235964,15.167822 C13.0249003,15.8228206 12.9378871,16.3368567 12.0308403,16.3368567 C11.1251118,16.3368567 11.0473273,15.8058627 11.0473273,15.1529838 L11.0235964,12.9639726 C11.0235964,12.9639726 11.1251118,12.2777588 12.0308403,12.2777588 C12.9378871,12.2777588 13.0196268,12.9639726 13.0196268,12.9639726 Z M9.76117789,9.3092406 L9.76117789,6.75723313 C9.7631307,5.37622474 10.7981185,4.2538242 12.0684196,4.25170447 C13.3406734,4.2538242 14.3756612,5.37622474 14.3766376,6.75723313 L14.3766376,9.3092406 L15.5307466,9.3092406 L15.5307466,6.75723313 C15.5297702,4.68625047 13.9772886,3.00105987 12.069396,3 C10.1615034,3.00105987 8.60804526,4.68625047 8.60804526,6.75723313 L8.60804526,9.3092406 L9.76117789,9.3092406 Z" id="形状" fill="#4E4F5B" fill-rule="nonzero"></path>
            </g>
        </g>
    </g>
</svg>