<svg width="24" height="24" viewBox="0 0 24 24" xmlns="http://www.w3.org/2000/svg"><g id="页面-1" stroke="none" stroke-width="1" fill="none" fill-rule="evenodd"><g id="画板" transform="translate(-601 -303)"><g id="Door-Phone_card_View" transform="translate(601 303)"><path d="M12.5 6c3.117 0 5.897 2.005 8.335 5.923.22.352.22.802 0 1.154C18.397 16.995 15.617 19 12.5 19c-3.117 0-5.897-2.005-8.335-5.923a1.093 1.093 0 0 1 0-1.154C6.603 8.005 9.383 6 12.5 6Zm0 2.6c-2.112 0-3.825 1.746-3.825 3.9s1.713 3.9 3.825 3.9 3.825-1.746 3.825-3.9-1.713-3.9-3.825-3.9Zm0 6.5c1.408 0 2.55-1.164 2.55-2.6 0-1.436-1.142-2.6-2.55-2.6s-2.55 1.164-2.55 2.6c0 1.436 1.142 2.6 2.55 2.6Z" id="形状" fill="#4E4F5B" fill-rule="nonzero"/></g></g></g></svg>