<?xml version="1.0" encoding="UTF-8"?>
<svg width="48px" height="48px" viewBox="0 0 48 48" version="1.1" xmlns="http://www.w3.org/2000/svg" xmlns:xlink="http://www.w3.org/1999/xlink">
    <title>门磁传感器</title>
    <defs>
        <linearGradient x1="20.1772696%" y1="-7.03875436%" x2="84.0573304%" y2="100%" id="door-form-1">
            <stop stop-color="#FFCDA5" offset="0%"></stop>
            <stop stop-color="#F3BC6B" offset="58.2379521%"></stop>
            <stop stop-color="#F18D5F" offset="100%"></stop>
        </linearGradient>
    </defs>
    <g id="页面-1" stroke="none" stroke-width="1" fill="none" fill-rule="evenodd">
        <g id="画板备份-2" transform="translate(-269.000000, -196.000000)">
            <g id="门磁传感器" transform="translate(269.000000, 196.000000)">
                <rect id="矩形备份-28" fill="#F7FAFF" x="0" y="0" width="48" height="48" rx="24"></rect>
                <path d="M31.772847,11.7333333 C32.9920297,11.7333333 33.5810875,12.4813484 33.5810875,13.3982701 L33.5810875,13.3982701 L33.5810875,34.6017299 C33.5810875,35.5186516 32.9676461,36.2666667 31.772847,36.2666667 L31.772847,36.2666667 L21.1415738,36.2666667 C19.9467747,36.2666667 19.3333333,35.5186516 19.3333333,34.6017299 L19.3333333,34.6017299 L19.3333333,13.3982701 C19.3333333,12.4813484 19.9467747,11.7333333 21.1415738,11.7333333 L21.1415738,11.7333333 Z M16.6982776,13.6154358 C17.2834853,13.6154358 17.7467747,14.0738967 17.7467747,14.6047461 L17.7467747,33.491772 C17.7467747,34.0467509 17.2834853,34.4810823 16.6982776,34.4810823 L14.3818305,34.4810823 C13.7966228,34.4810823 13.3333333,34.0226214 13.3333333,33.491772 L13.3333333,14.6047461 C13.3333333,14.0497671 13.7966228,13.6154358 14.3818305,13.6154358 L16.6982776,13.6154358 Z M26.3333333,19.7333333 C24.1361502,19.7333333 22.3333333,21.5361502 22.3333333,23.7333333 C22.3333333,25.9305164 24.1361502,27.7333333 26.3333333,27.7333333 C28.5305164,27.7333333 30.3333333,25.9586854 30.3333333,23.7333333 C30.3333333,21.5361502 28.5305164,19.7333333 26.3333333,19.7333333 Z M26.3333333,20.7333333 C28,20.7333333 29.3333333,22.1 29.3333333,23.7333333 C29.3333333,25.4 28,26.7333333 26.3333333,26.7333333 C24.6666667,26.7333333 23.3333333,25.4 23.3333333,23.7333333 C23.3333333,22.0666667 24.6666667,20.7333333 26.3333333,20.7333333 Z" id="形状结合" fill="url(#door-form-1)"></path>
            </g>
        </g>
    </g>
</svg>