<?xml version="1.0" encoding="UTF-8"?>
<svg width="16px" height="16px" viewBox="0 0 16 16" version="1.1" xmlns="http://www.w3.org/2000/svg" xmlns:xlink="http://www.w3.org/1999/xlink">
    <title>edit</title>
    <g id="页面-1" stroke="none" stroke-width="1" fill="none" fill-rule="evenodd">
        <g id="device-pop-_41" transform="translate(-1228.000000, -188.000000)">
            <g id="edit" transform="translate(1228.000000, 188.000000)">
                <rect id="bg" fill-opacity="0" fill="#00AAEE" x="0" y="0" width="16" height="16"></rect>
                <path d="M14.1176471,6.68907563 L14.1176471,11.7579832 C14.1176471,13.0689076 13.0689076,14.1176471 11.7579832,14.1176471 L4.24201681,14.1176471 C2.93109244,14.1176471 1.88235294,13.0689076 1.88235294,11.7579832 L1.88235294,4.24201681 C1.88235294,2.93109244 2.93109244,1.88235294 4.24201681,1.88235294 L9.31092437,1.88235294 C9.57310924,1.88235294 9.74789916,2.05714286 9.74789916,2.31932773 C9.74789916,2.58151261 9.57310924,2.75630252 9.31092437,2.75630252 L4.24201681,2.75630252 C3.36806723,2.75630252 2.75630252,3.36806723 2.75630252,4.24201681 L2.75630252,11.8453782 C2.75630252,12.6319328 3.36806723,13.2436975 4.24201681,13.2436975 L11.8453782,13.2436975 C12.6319328,13.2436975 13.3310924,12.6319328 13.3310924,11.7579832 L13.3310924,6.68907563 C13.2436975,6.42689076 13.4184874,6.25210084 13.6806723,6.25210084 C13.9428571,6.25210084 14.1176471,6.42689076 14.1176471,6.68907563 L14.1176471,6.68907563 Z M6.02021263,9.94807756 C6.11068676,10.0392157 6.29163501,10.0392157 6.38210914,10.0392157 C6.47258327,10.0392157 6.65353152,10.0392157 6.74400565,9.94807756 L13.9819359,2.65702706 C14.1628841,2.47475079 14.1628841,2.2013364 13.9819359,2.01906014 C13.8009876,1.83678388 13.5295652,1.83678388 13.348617,2.01906014 L6.11068676,9.31011064 C5.9297385,9.40124877 5.9297385,9.76580129 6.02021263,9.94807756 Z" id="形状" fill="#717171" fill-rule="nonzero"></path>
            </g>
        </g>
    </g>
</svg>