<svg width="16" height="16" viewBox="0 0 16 16" xmlns="http://www.w3.org/2000/svg"><g id="页面-1" stroke="none" stroke-width="1" fill="none" fill-rule="evenodd"><g id="device-pop-_41" transform="translate(-1228 -154)"><g id="edit-hover" transform="translate(1228 154)"><path id="bg" fill-opacity="0" fill="#0AE" d="M0 0h16v16H0z"/><path d="M14.118 6.69v5.068a2.35 2.35 0 0 1-2.36 2.36H4.242a2.35 2.35 0 0 1-2.36-2.36V4.242a2.35 2.35 0 0 1 2.36-2.36h5.069c.262 0 .437.175.437.437 0 .263-.175.437-.437.437H4.242c-.874 0-1.486.612-1.486 1.486v7.603c0 .787.612 1.399 1.486 1.399h7.603c.787 0 1.486-.612 1.486-1.486V6.689c-.087-.262.087-.437.35-.437.262 0 .437.175.437.437ZM6.02 9.947c.09.091.272.091.362.091.09 0 .272 0 .362-.09l7.238-7.292a.443.443 0 0 0 0-.638.435.435 0 0 0-.633 0L6.11 9.31c-.181.091-.181.456-.09.638Z" id="形状" fill="#FF6D00" fill-rule="nonzero"/></g></g></g></svg>