<?xml version="1.0" encoding="UTF-8"?>
<svg width="28px" height="28px" viewBox="0 0 28 28" version="1.1" xmlns="http://www.w3.org/2000/svg" xmlns:xlink="http://www.w3.org/1999/xlink">
    <title>Energy</title>
    <defs>
        <linearGradient x1="4.36692629%" y1="0%" x2="91.4347454%" y2="89.0579578%" id="Energy-1">
            <stop stop-color="#0569CB" offset="0.0448690878%"></stop>
            <stop stop-color="#5BEDFF" offset="100%"></stop>
        </linearGradient>
    </defs>
    <g id="页面-1" stroke="none" stroke-width="1" fill="none" fill-rule="evenodd">
        <g id="Energy_Device-Energy-Consumption" transform="translate(-146.000000, -131.000000)">
            <g id="Energy" transform="translate(146.000000, 131.000000)">
                <rect id="矩形" fill="url(#Energy-1)" opacity="0" x="0" y="0" width="28" height="28" rx="14"></rect>
                <g id="饼状图" transform="translate(4.000000, 5.000000)" fill="#252631" fill-rule="nonzero">
                    <path d="M15.9004269,6.30107898 C16.2096445,6.841275 16.5726754,7.05039489 16.9895194,6.92843865 C17.4895512,6.78214412 17.6316372,6.40481462 17.4657483,5.84604801 C17.4612703,5.83322402 16.7893405,3.97663288 15.4344404,2.64933211 C14.3980754,1.63407775 13.270554,0.871666939 11.9062934,0.47815417 C11.3036306,0.304319691 11.0386404,0.583716029 10.8918532,0.92932635 C10.7450661,1.27493667 10.9477862,1.90221757 11.4726369,2.03004001 C12.3389483,2.37900519 12.9778725,2.70360503 13.3894096,3.00383953 C15.1411724,4.2818282 15.2544374,4.90009783 15.9004269,6.30107898 Z M16.9659888,8.052248 C16.9402765,8.04690357 16.9140896,8.0441756 16.887828,8.04410578 L9.9553254,8.04410578 L9.9553254,1.03813512 C9.95529118,1.02452147 9.95440738,1.01092462 9.95267914,0.997422582 C9.95444287,0.983514682 9.95532664,0.969509377 9.95532522,0.955490108 C9.95466881,0.428176492 9.52743725,0.000801696848 9.00012211,1.91269132e-07 C4.03688667,-0.00101459565 0,4.03609872 0,8.99959423 C0,13.9630897 4.03688667,18.0000002 9.00010175,18.0000002 C13.9633168,18.0000002 18,13.9624791 18,8.99959423 C17.9993435,8.47220151 17.5719878,8.04479414 17.0445953,8.04410409 C17.0181604,8.04417733 16.9918387,8.04690514 16.9659888,8.052248 Z M9.00009332,16.3637399 C5.09204995,16.3637399 1.65387113,13.0864452 1.65387113,9.17716322 C1.71180676,7.25577929 2.2698348,5.63734406 3.32795524,4.32185752 C4.70088807,2.61498693 6.95246694,1.78774129 8.38969703,1.59081098 L8.38969703,8.73756607 C8.39046938,9.26488621 8.81779465,9.69216737 9.34510979,9.69285131 L16.5459621,9.69285131 C16.438781,10.4793354 16.0259594,12.7569804 14.0926368,14.5568539 C12.5127742,16.0276654 9.92293958,16.3641984 9.00009332,16.3637399 Z" id="形状"></path>
                </g>
            </g>
        </g>
    </g>
</svg>