<svg width="28" height="28" viewBox="0 0 28 28" xmlns="http://www.w3.org/2000/svg"><defs><linearGradient x1="4.367%" y1="0%" x2="91.435%" y2="89.058%" id="Energy-1"><stop stop-color="#0569CB" offset=".045%"/><stop stop-color="#5BEDFF" offset="100%"/></linearGradient></defs><g id="页面-1" stroke="none" stroke-width="1" fill="none" fill-rule="evenodd"><g id="Energy_Device-Energy-Consumption" transform="translate(-146 -131)"><g id="Energy" transform="translate(146 131)"><g id="饼状图" transform="translate(4 5)" fill="#252631" fill-rule="nonzero"><path d="M15.9 6.301c.31.54.673.75 1.09.627.5-.146.642-.523.476-1.082-.005-.013-.677-1.87-2.032-3.197C14.398 1.634 13.271.872 11.906.48c-.602-.175-.867.105-1.014.45-.147.346.056.973.58 1.101.867.349 1.506.674 1.917.974C15.141 4.282 15.254 4.9 15.9 6.3Zm1.066 1.751a.39.39 0 0 0-.078-.008H9.955V1.038c0-.013 0-.027-.002-.04A.957.957 0 0 0 9 0C4.037-.002 0 4.035 0 8.999c0 4.963 4.037 9 9 9s9-4.038 9-9a.957.957 0 0 0-.955-.956.394.394 0 0 0-.079.008ZM9 16.364c-3.908 0-7.346-3.278-7.346-7.187.058-1.921.616-3.54 1.674-4.855C4.701 2.615 6.952 1.788 8.39 1.59v7.147c0 .527.428.954.955.955h7.201c-.107.786-.52 3.064-2.453 4.864-1.58 1.47-4.17 1.807-5.093 1.807Z" id="形状"/></g></g></g></g></svg>