<svg width="17" height="17" viewBox="0 0 17 17" xmlns="http://www.w3.org/2000/svg"><g id="页面-1" stroke="none" stroke-width="1" fill="none" fill-rule="evenodd"><g id="Scenes_卡片折叠、框选多个卡片效果" transform="translate(-1593 -185)" fill="#868686" fill-rule="nonzero"><g id="enlarge" transform="translate(1593 185)"><path d="M8.5 17a8.5 8.5 0 1 1 0-17 8.5 8.5 0 0 1 0 17Zm0-1.275a7.225 7.225 0 1 0 0-14.45 7.225 7.225 0 0 0 0 14.45Zm.637-7.862h2.55a.637.637 0 0 1 0 1.274h-2.55v2.55a.637.637 0 0 1-1.274 0v-2.55h-2.55a.637.637 0 0 1 0-1.274h2.55v-2.55a.637.637 0 0 1 1.274 0v2.55Z" id="形状"/></g></g></g></svg>