<?xml version="1.0" encoding="UTF-8"?>
<svg width="17px" height="17px" viewBox="0 0 17 17" version="1.1" xmlns="http://www.w3.org/2000/svg" xmlns:xlink="http://www.w3.org/1999/xlink">
    <title>enlarge</title>
    <g id="页面-1" stroke="none" stroke-width="1" fill="none" fill-rule="evenodd">
        <g id="Scenes_卡片折叠、框选多个卡片效果" transform="translate(-1593.000000, -185.000000)" fill="#868686" fill-rule="nonzero">
            <g id="enlarge" transform="translate(1593.000000, 185.000000)">
                <path d="M8.5,17 C3.80567281,17 0,13.1943471 0,8.5 C0,3.80567281 3.80565289,0 8.5,0 C13.1943272,0 17,3.80565289 17,8.5 C17,13.1943272 13.1943471,17 8.5,17 L8.5,17 Z M8.5,15.725001 C12.4903285,15.725001 15.725001,12.4903285 15.725001,8.5 C15.725001,4.50967148 12.4903285,1.274999 8.5,1.274999 C4.50967148,1.274999 1.274999,4.50967148 1.274999,8.5 C1.274999,12.4903285 4.50967148,15.725001 8.5,15.725001 L8.5,15.725001 Z M9.1374995,7.8625005 L11.6874975,7.8625005 L11.6874975,7.8625005 C12.0395785,7.86250048 12.324997,8.14791899 12.324997,8.5 C12.324997,8.85208101 12.0395785,9.1374995 11.6874975,9.1374995 L9.13749947,9.1374995 L9.13749947,11.6874975 L9.13749947,11.6874975 C9.13749947,12.0395785 8.85208099,12.324997 8.49999997,12.324997 C8.14791896,12.324997 7.86250047,12.0395785 7.86250047,11.6874975 L7.86250047,9.1374995 L5.31250246,9.1374995 L5.31250243,9.1374995 C4.96042142,9.13749949 4.67500293,8.85208101 4.67500293,8.5 C4.67500293,8.14791899 4.96042142,7.8625005 5.31250243,7.8625005 L7.86250044,7.8625005 L7.86250044,5.31250249 L7.86250044,5.31250242 C7.8625005,4.96042141 8.14791893,4.67500292 8.49999994,4.67500292 C8.85208096,4.67500292 9.13749945,4.96042141 9.13749945,5.31250242 L9.13749945,7.86250043 L9.1374995,7.8625005 Z" id="形状"></path>
            </g>
        </g>
    </g>
</svg>