<svg width="28" height="20" viewBox="0 0 28 20" xmlns="http://www.w3.org/2000/svg"><g id="页面-1" stroke="none" stroke-width="1" fill="none" fill-rule="evenodd"><g id="画板" transform="translate(-1018 -244)"><g id="home_device_more-_Normal" transform="translate(1018 244)"><g id="更多备份-12" transform="matrix(1 0 0 -1 5 11)" fill="#778CA2" fill-rule="nonzero"><path d="M1.5 3a1.5 1.5 0 0 0 0-3 1.5 1.5 0 0 0 0 3Zm8 0a1.5 1.5 0 0 0 0-3 1.5 1.5 0 0 0 0 3Zm8 0a1.5 1.5 0 0 0 0-3 1.5 1.5 0 0 0 0 3Z" id="形状"/></g></g></g></g></svg>