<svg width="32" height="32" viewBox="0 0 32 32" xmlns="http://www.w3.org/2000/svg"><g id="页面-1" stroke="none" stroke-width="1" fill="none" fill-rule="evenodd"><g id="home-" transform="translate(-1290 -260)"><g id="home_Security" transform="translate(1290 260)"><rect id="Rectangle-Copy备份-2" fill="#FFF" x="0" y="0" width="32" height="32" rx="12"/><g id="编组-2" transform="translate(8 5.5)" fill="#696969" fill-rule="nonzero"><path d="M15.412 3.326C12.294 2.98 9.94 2.148 8.429.846L8.032.5l-.43.298C5.25 2.478 2.911 3.326.668 3.326H0v9.215c0 2.826 2.529 5.384 7.714 7.833l.27.126.27-.126C13.392 18.192 16 15.554 16 12.525V3.39l-.588-.063Zm-.732 9.215c0 2.402-2.243 4.6-6.664 6.515-4.437-2.135-6.68-4.333-6.68-6.515V4.613c2.179-.141 4.406-.958 6.632-2.449 1.607 1.209 3.85 2.01 6.68 2.386v7.99h.032Z" id="形状"/><path d="M4.29 10.075a.776.776 0 0 0-1.041-.067.685.685 0 0 0-.07.989l2.823 3.034c.3.318.705.469 1.111.469.441 0 .865-.184 1.147-.52l4.57-5.33c.265-.302.212-.738-.105-.989a.76.76 0 0 0-1.041.1L7.096 13.11 4.29 10.075Z" id="路径"/></g></g></g></g></svg>