<?xml version="1.0" encoding="UTF-8"?>
<svg width="32px" height="32px" viewBox="0 0 32 32" version="1.1" xmlns="http://www.w3.org/2000/svg" xmlns:xlink="http://www.w3.org/1999/xlink">
    <title>home_Security</title>
    <g id="页面-1" stroke="none" stroke-width="1" fill="none" fill-rule="evenodd">
        <g id="home-" transform="translate(-1290.000000, -260.000000)">
            <g id="home_Security" transform="translate(1290.000000, 260.000000)">
                <rect id="Rectangle-Copy备份-2" fill="#FFFFFF" x="0" y="0" width="32" height="32" rx="12"></rect>
                <g id="编组-2" transform="translate(8.000000, 5.500000)" fill="#696969" fill-rule="nonzero">
                    <path d="M15.4115308,3.32574568 C12.2942346,2.98037677 9.94035785,2.14835165 8.42942346,0.845368917 L8.03180915,0.5 L7.60238569,0.798273155 C5.24850895,2.47802198 2.91053678,3.32574568 0.667992048,3.32574568 L0,3.32574568 L0,12.5408163 C0,15.366562 2.52882704,17.9254317 7.71371769,20.3744113 L7.98409543,20.5 L8.25447316,20.3744113 C13.3916501,18.1923077 16,15.5549451 16,12.5251177 L16,3.38854003 L15.4115308,3.32574568 Z M14.6799205,12.5408163 C14.6799205,14.9427002 12.4373757,17.1405024 8.01590457,19.05573 C3.57852883,16.9207221 1.3359841,14.7229199 1.3359841,12.5408163 L1.3359841,4.61302983 C3.51491054,4.47174254 5.7415507,3.65541601 7.96819085,2.16405024 C9.57455268,3.37284144 11.8170974,4.17346939 14.6481113,4.55023548 L14.6481113,12.5408163 L14.6799205,12.5408163 Z" id="形状"></path>
                    <path d="M4.28999553,10.0747568 C4.02530962,9.78979801 3.54887499,9.75627344 3.24889763,10.0077077 C2.94892027,10.259142 2.91362882,10.7117237 3.17831472,10.9966825 L6.00163105,14.030656 C6.30160841,14.3491394 6.70746013,14.5 7.11331185,14.5 C7.55445503,14.5 7.97795248,14.3156149 8.26028411,13.9803692 L12.8305274,8.64996265 C13.0952133,8.34824153 13.0422761,7.91242213 12.724653,7.66098786 C12.40703,7.40955359 11.9482411,7.45984044 11.6835552,7.76156156 L7.09566613,13.1087304 L4.28999553,10.0747568 L4.28999553,10.0747568 Z" id="路径"></path>
                </g>
            </g>
        </g>
    </g>
</svg>