<?xml version="1.0" encoding="UTF-8"?>
<svg width="40px" height="35px" viewBox="0 0 40 35" version="1.1" xmlns="http://www.w3.org/2000/svg" xmlns:xlink="http://www.w3.org/1999/xlink">
    <title>last_press</title>
    <g id="页面-1" stroke="none" stroke-width="1" fill="none" fill-rule="evenodd">
        <g id="Scenes_start" transform="translate(-1388.000000, -253.000000)">
            <g id="last_press" transform="translate(1388.000000, 253.000000)">
                <rect id="Rectangle备份-8" fill="#4081FF" x="0" y="0" width="40" height="35" rx="8"></rect>
                <path d="M19.9105753,10.0911568 C20.1726565,10.3894268 20.32,10.7938857 20.32,11.2156386 L20.32,13.375 L26.6045958,13.375 C27.5348653,13.375 28,13.9249996 28,15.0249989 L28,19.9750011 C28,21.0750004 27.5348653,21.625 26.6045958,21.625 L20.32,21.625 L20.32,23.7840221 C20.32,24.6626952 19.6939284,25.375 18.9216294,25.375 C18.5509348,25.375 18.195409,25.2075388 17.9331927,24.9094234 L17.9329869,24.9091911 L12.4094239,18.6248295 C11.8635254,18.0035526 11.8635254,16.9964626 12.4094238,16.3751789 L17.9329869,10.0908172 C18.4791663,9.46959498 19.3645656,9.46974708 19.9105753,10.0911568 Z" id="形状结合" fill="#FFFFFF" fill-rule="nonzero"></path>
            </g>
        </g>
    </g>
</svg>