<svg width="30" height="30" viewBox="0 0 30 30" xmlns="http://www.w3.org/2000/svg"><g id="页面-1" stroke="none" stroke-width="1" fill="none" fill-rule="evenodd"><g id="device-pop-_music" transform="translate(-1790 -531)"><g id="Loop" transform="translate(1790 531)" fill="#2C2543"><path d="M24.998 15.193 25 15a6 6 0 0 1-6 6h-3.942v.983a.5.5 0 0 1-.798.401l-2.857-2.12a.5.5 0 0 1 0-.803l2.856-2.134a.5.5 0 0 1 .8.401v1.271L19 19a4 4 0 0 0 3.651-2.364 6.502 6.502 0 0 0 2.347-1.443Z" id="Combined-Shape" opacity=".2"/><path d="M20 5a5 5 0 1 1-4.9 6.001L11 11a4 4 0 0 0-4 4v1a3 3 0 0 0 3 3v2a5 5 0 0 1-5-5v-1a6 6 0 0 1 6-6h4.1A5.002 5.002 0 0 1 20 5Zm.69 2.5h-.872L18.05 8.924l.56.664 1.12-.92V12.5h.96v-5Z" id="Combined-Shape" fill-rule="nonzero"/></g></g></g></svg>