<?xml version="1.0" encoding="UTF-8"?>
<svg width="30px" height="30px" viewBox="0 0 30 30" version="1.1" xmlns="http://www.w3.org/2000/svg" xmlns:xlink="http://www.w3.org/1999/xlink">
    <title>Loop</title>
    <g id="页面-1" stroke="none" stroke-width="1" fill="none" fill-rule="evenodd">
        <g id="device-pop-_music" transform="translate(-1790.000000, -531.000000)">
            <g id="Loop" transform="translate(1790.000000, 531.000000)">
                <path d="M24.9978083,15.1925301 L25,15 C25,18.3137085 22.3137085,21 19,21 L15.0582527,20.9993592 L15.0583175,21.9825492 C15.0583175,22.2586916 14.8344599,22.4825492 14.5583175,22.4825492 C14.4509855,22.4825492 14.3465023,22.4480108 14.2603165,22.3840407 L11.4032831,20.263451 C11.1815455,20.0988696 11.1352112,19.7856962 11.2997926,19.5639585 C11.3287258,19.5249774 11.3631816,19.4904176 11.4020755,19.4613672 L14.2591089,17.3274051 C14.48035,17.1621567 14.7936615,17.2075478 14.9589099,17.4287888 C15.0234473,17.5151942 15.0583175,17.6201505 15.0583175,17.7279974 L15.0582527,18.9993592 L19,19 C20.6263814,19 22.0260564,18.0293547 22.6513327,16.6357563 C23.5359742,16.3255694 24.3342314,15.828739 24.9978083,15.1925301 Z" id="Combined-Shape" fill="#2C2543" opacity="0.200000003"></path>
                <path d="M20,5 C22.7614237,5 25,7.23857625 25,10 C25,12.7614237 22.7614237,15 20,15 C17.5814613,15 15.5639878,13.2828356 15.1002591,11.0011864 L11,11 C8.790861,11 7,12.790861 7,15 L7,16 C7,17.6568542 8.34314575,19 10,19 L10,21 C7.23857625,21 5,18.7614237 5,16 L5,15 C5,11.6862915 7.6862915,9 11,9 L15.1000563,8.99981203 C15.5633992,6.71766536 17.5811085,5 20,5 Z M20.6900002,7.5 L19.8180002,7.5 L18.0500002,8.924 L18.6100002,9.588 L19.7300002,8.668 L19.7300002,12.5 L20.6900002,12.5 L20.6900002,7.5 Z" id="Combined-Shape" fill="#2C2543" fill-rule="nonzero"></path>
                <rect id="矩形" stroke="#979797" fill="#D8D8D8" opacity="0" x="0.5" y="0.5" width="29" height="29"></rect>
            </g>
        </g>
    </g>
</svg>