<svg width="48" height="48" viewBox="0 0 48 48" xmlns="http://www.w3.org/2000/svg"><g id="页面-1" stroke="none" stroke-width="1" fill="none" fill-rule="evenodd"><g id="画板备份-2" transform="translate(-367 -451)"><g id="红外传感器_Disabled" transform="translate(367 451)"><rect id="矩形备份-29" fill="#F7FAFF" x="0" y="0" width="48" height="48" rx="24"/><path d="M21.94 30.12v3.912c-.103 1.93-1.65 3.405-3.458 3.296-1.665-.1-2.994-1.52-3.088-3.296V30.12c-1.025-.345-1.728-1.352-1.744-2.5l-.317-5.422a2.686 2.686 0 0 1 .773-1.915 2.635 2.635 0 0 1 1.895-.78h5.374c1.392-.03 2.555 1.127 2.625 2.611l-.33 5.548c-.025 1.13-.721 2.118-1.73 2.458Zm-3.275-13.125c-1.626.009-2.951-1.39-2.965-3.127.004-1.31.722-2.482 1.807-2.949 1.104-.501 2.366-.244 3.245.663.849.875 1.112 2.261.656 3.452-.488 1.21-1.565 1.98-2.743 1.96Z" id="形状结合" fill="#9F9F9F" fill-rule="nonzero"/><path d="M33.529 32.958c-.44-.228-.592-.738-.342-1.139a.819.819 0 0 1 .003-.005c3.086-4.829 3.086-10.8 0-15.628-.253-.399-.104-.91.333-1.14a.94.94 0 0 1 .006-.004c.437-.226.992-.088 1.244.31 3.414 5.344 3.414 11.952 0 17.297a.934.934 0 0 1-.787.418.986.986 0 0 1-.457-.109Zm-3.774-1.767a1.053 1.053 0 0 1-.48-.12c-.455-.238-.61-.757-.347-1.164 2.14-3.275 2.14-7.32 0-10.595-.246-.418-.064-.936.406-1.155.443-.206.99-.076 1.257.3 2.488 3.803 2.488 8.503 0 12.306a.99.99 0 0 1-.836.428Z" id="形状" fill="#9F9F9F" fill-rule="nonzero"/></g></g></g></svg>