<?xml version="1.0" encoding="UTF-8"?>
<svg width="48px" height="48px" viewBox="0 0 48 48" version="1.1" xmlns="http://www.w3.org/2000/svg" xmlns:xlink="http://www.w3.org/1999/xlink">
    <title>红外传感器_Disabled</title>
    <g id="页面-1" stroke="none" stroke-width="1" fill="none" fill-rule="evenodd">
        <g id="画板备份-2" transform="translate(-367.000000, -451.000000)">
            <g id="红外传感器_Disabled" transform="translate(367.000000, 451.000000)">
                <rect id="矩形备份-29" fill="#F7FAFF" x="0" y="0" width="48" height="48" rx="24"></rect>
                <path d="M21.9390744,30.1197422 L21.9390744,34.0320753 L21.9390744,34.032074 C21.8369777,35.9611534 20.2891216,37.4366294 18.4818479,37.3276664 C16.8171723,37.227288 15.4883907,35.8089479 15.3943325,34.032074 L15.3943325,30.1197409 L15.3943326,30.119741 C14.3689576,29.7750923 13.6658671,28.7679123 13.6497203,27.6205816 L13.33337,22.1976146 L13.33337,22.1976137 C13.3296465,21.4723669 13.6098066,20.7783922 14.1062543,20.2832158 L14.1062544,20.2832158 C14.6203316,19.7728819 15.298886,19.4936409 16.0008708,19.5035337 L21.374929,19.5035337 L21.3749291,19.5035337 C22.7671389,19.4734211 23.9297875,20.6296266 24,22.1140762 L23.6706433,27.6623493 L23.6706433,27.6623462 C23.6445198,28.7921972 22.9488049,29.779537 21.9390774,30.1197397 L21.9390744,30.1197422 Z M18.6650333,16.9948778 C17.0385623,17.0038302 15.7135835,15.604286 15.7003601,13.8675383 L15.7003601,13.8675527 C15.7038311,12.5577485 16.4219207,11.3856653 17.5066562,10.9192594 L17.5066562,10.9192594 C18.6112473,10.4178089 19.8728079,10.6753579 20.7516642,11.5817301 L20.7516642,11.5817301 C21.6009705,12.4566806 21.8644146,13.8434747 21.4075419,15.0343368 L21.407542,15.0343365 C20.9197577,16.2446116 19.8432104,17.014207 18.665021,16.9948919 L18.6650333,16.9948778 Z" id="形状结合" fill="#9F9F9F" fill-rule="nonzero"></path>
                <path d="M33.5285124,32.9579684 C33.0896263,32.7296059 32.936682,32.2197785 33.1869057,31.8192338 C33.1879478,31.8175657 33.1889961,31.8159009 33.1900508,31.8142394 C36.2756721,26.985428 36.2756721,21.0148996 33.1900508,16.1860581 C32.9368046,15.7870998 33.0858882,15.2763209 33.5230388,15.0452015 C33.5248594,15.044239 33.5266835,15.0432822 33.5285113,15.0423312 C33.9657475,14.8157658 34.521381,14.9537243 34.7725823,15.3512214 C38.1869171,20.6961955 38.1869171,27.3041131 34.772582,32.6490558 C34.6101645,32.9058058 34.3107315,33.0646847 33.985891,33.0666523 C33.8256482,33.0675075 33.6679247,33.0300823 33.5285124,32.9579684 Z M29.754803,31.1906708 L29.754803,31.1906708 C29.5854987,31.1890885 29.4196608,31.1477586 29.27406,31.0708432 L29.2740599,31.0708432 C28.8197523,30.8329243 28.6653609,30.3137885 28.9279255,29.9069713 L28.9279251,29.9069719 C31.0682068,26.6323319 31.0682068,22.5869624 28.9279259,19.3123224 L28.9279259,19.3123223 C28.6817881,18.893523 28.8636877,18.3764237 29.3342116,18.1573427 C29.7769303,17.9512087 30.3232534,18.0812364 30.5912966,18.4565343 L30.5912964,18.4565341 C33.0790916,22.2597823 33.0790916,26.959521 30.5912967,30.7627692 L30.5912968,30.7627692 C30.418863,31.0286062 30.0996749,31.1918835 29.7548053,31.1906708 L29.754803,31.1906708 Z" id="形状" fill="#9F9F9F" fill-rule="nonzero"></path>
            </g>
        </g>
    </g>
</svg>