<svg width="20" height="20" viewBox="0 0 20 20" xmlns="http://www.w3.org/2000/svg"><g id="页面-1" stroke="none" stroke-width="1" fill="none" fill-rule="evenodd"><g id="device-pop-_music" transform="translate(-1500 -789)"><g id="music_Selected" transform="translate(1500 789)"><path d="M16 4.023v1.962c0 .456-.308.857-.754.983L10.28 8.362v6.06c0 1.929-1.555 3.51-3.515 3.576L6.64 18C4.63 18 3 16.398 3 14.422c0-1.976 1.63-3.577 3.64-3.577.744 0 1.47.224 2.08.642V5.223h.034a1.03 1.03 0 0 1 .72-.723l5.2-1.46a1.043 1.043 0 0 1 1.286.702c.027.091.04.186.04.28Z" id="路径" fill="#FE517F" fill-rule="nonzero"/></g></g></g></svg>