<?xml version="1.0" encoding="UTF-8"?>
<svg width="17px" height="17px" viewBox="0 0 17 17" version="1.1" xmlns="http://www.w3.org/2000/svg" xmlns:xlink="http://www.w3.org/1999/xlink">
    <title>narrow</title>
    <g id="页面-1" stroke="none" stroke-width="1" fill="none" fill-rule="evenodd">
        <g id="Scenes_卡片折叠、框选多个卡片效果" transform="translate(-1526.000000, -185.000000)" fill="#868686" fill-rule="nonzero">
            <g id="narrow" transform="translate(1526.000000, 185.000000)">
                <path d="M8.5,17 C3.80567281,17 0,13.1943471 0,8.5 C0,3.80567281 3.80565289,0 8.5,0 C13.1943272,0 17,3.80565289 17,8.5 C17,13.1943272 13.1943471,17 8.5,17 L8.5,17 Z M8.5,15.725001 C12.4903285,15.725001 15.725001,12.4903285 15.725001,8.5 C15.725001,4.50967148 12.4903285,1.274999 8.5,1.274999 C4.50967148,1.274999 1.274999,4.50967148 1.274999,8.5 C1.274999,12.4903285 4.50967148,15.725001 8.5,15.725001 L8.5,15.725001 Z M11.6874975,7.8625005 C12.0395785,7.8625005 12.324997,8.14791899 12.324997,8.5 C12.324997,8.85208101 12.0395785,9.1374995 11.6874975,9.1374995 L5.31250246,9.1374995 C4.96042142,9.1374995 4.67500293,8.85208101 4.67500293,8.5 C4.67500293,8.14791899 4.96042142,7.8625005 5.31250243,7.8625005 L11.6874975,7.8625005 Z" id="形状"></path>
            </g>
        </g>
    </g>
</svg>