<?xml version="1.0" encoding="UTF-8"?>
<svg width="28px" height="28px" viewBox="0 0 28 28" version="1.1" xmlns="http://www.w3.org/2000/svg" xmlns:xlink="http://www.w3.org/1999/xlink">
    <title>Navigation bar_card_9</title>
    <g id="页面-1" stroke="none" stroke-width="1" fill="none" fill-rule="evenodd">
        <g id="画板" transform="translate(-395.000000, -359.000000)">
            <g id="Navigation-bar_card_9" transform="translate(395.000000, 359.000000)">
                <rect id="矩形" stroke="#979797" fill="#D8D8D8" opacity="0" x="0.5" y="0.5" width="27" height="27"></rect>
                <g id="编组" transform="translate(3.000000, 3.000000)" fill="#8486A1" fill-rule="nonzero">
                    <path d="M5.80353261,6.69565217 L0.892119565,6.69565217 C0.399456522,6.69565217 0,6.29619565 0,5.80353261 L0,0.892119565 C0,0.399456522 0.399456522,0 0.892119565,0 L5.80353261,0 C6.29619565,0 6.69565217,0.399456522 6.69565217,0.892119565 L6.69565217,5.80353261 C6.69565217,6.29619565 6.29619565,6.69565217 5.80353261,6.69565217 Z M5.80353261,14.3478261 L0.892119565,14.3478261 C0.399456522,14.3478261 0,13.9483696 0,13.4557065 L0,8.54429348 C0,8.05163043 0.399456522,7.65217391 0.892119565,7.65217391 L5.80353261,7.65217391 C6.29619565,7.65217391 6.69565217,8.05163043 6.69565217,8.54429348 L6.69565217,13.4557065 C6.69565217,13.9483696 6.29619565,14.3478261 5.80353261,14.3478261 L5.80353261,14.3478261 Z M13.4557065,6.69565217 L8.54429348,6.69565217 C8.05163043,6.69565217 7.65217391,6.29619565 7.65217391,5.80353261 L7.65217391,0.892119565 C7.65217391,0.399456522 8.05163043,0 8.54429348,0 L13.4557065,0 C13.9483696,0 14.3478261,0.399456522 14.3478261,0.892119565 L14.3478261,5.80353261 C14.3478261,6.29619565 13.9483696,6.69565217 13.4557065,6.69565217 L13.4557065,6.69565217 Z M13.4557065,14.3478261 L8.54429348,14.3478261 C8.05163043,14.3478261 7.65217391,13.9483696 7.65217391,13.4557065 L7.65217391,8.54429348 C7.65217391,8.05163043 8.05163043,7.65217391 8.54429348,7.65217391 L13.4557065,7.65217391 C13.9483696,7.65217391 14.3478261,8.05163043 14.3478261,8.54429348 L14.3478261,13.4557065 C14.3478261,13.9483696 13.9483696,14.3478261 13.4557065,14.3478261 L13.4557065,14.3478261 Z M5.80353261,22 L0.892119565,22 C0.399456522,22 0,21.6005435 0,21.1078804 L0,16.1964674 C0,15.7038043 0.399456522,15.3043478 0.892119565,15.3043478 L5.80353261,15.3043478 C6.29619565,15.3043478 6.69565217,15.7038043 6.69565217,16.1964674 L6.69565217,21.1078804 C6.69565217,21.6005435 6.29619565,22 5.80353261,22 Z M13.4557065,22 L8.54429348,22 C8.05163043,22 7.65217391,21.6005435 7.65217391,21.1078804 L7.65217391,16.1964674 C7.65217391,15.7038043 8.05163043,15.3043478 8.54429348,15.3043478 L13.4557065,15.3043478 C13.9483696,15.3043478 14.3478261,15.7038043 14.3478261,16.1964674 L14.3478261,21.1078804 C14.3478261,21.6005435 13.9483696,22 13.4557065,22 L13.4557065,22 Z M21.1078804,6.69565217 L16.1964674,6.69565217 C15.7038043,6.69565217 15.3043478,6.29619565 15.3043478,5.80353261 L15.3043478,0.892119565 C15.3043478,0.399456522 15.7038043,0 16.1964674,0 L21.1078804,0 C21.6005435,0 22,0.399456522 22,0.892119565 L22,5.80353261 C22,6.29619565 21.6005435,6.69565217 21.1078804,6.69565217 Z M21.1078804,14.3478261 L16.1964674,14.3478261 C15.7038043,14.3478261 15.3043478,13.9483696 15.3043478,13.4557065 L15.3043478,8.54429348 C15.3043478,8.05163043 15.7038043,7.65217391 16.1964674,7.65217391 L21.1078804,7.65217391 C21.6005435,7.65217391 22,8.05163043 22,8.54429348 L22,13.4557065 C22,13.9483696 21.6005435,14.3478261 21.1078804,14.3478261 L21.1078804,14.3478261 Z M21.1078804,22 L16.1964674,22 C15.7038043,22 15.3043478,21.6005435 15.3043478,21.1078804 L15.3043478,16.1964674 C15.3043478,15.7038043 15.7038043,15.3043478 16.1964674,15.3043478 L21.1078804,15.3043478 C21.6005435,15.3043478 22,15.7038043 22,16.1964674 L22,21.1078804 C22,21.6005435 21.6005435,22 21.1078804,22 Z" id="形状结合"></path>
                </g>
            </g>
        </g>
    </g>
</svg>