<svg width="28" height="28" viewBox="0 0 28 28" xmlns="http://www.w3.org/2000/svg"><g id="页面-1" stroke="none" stroke-width="1" fill="none" fill-rule="evenodd"><g id="画板" transform="translate(-482 -359)"><g id="Navigation-bar_card_4" transform="translate(482 359)"><g id="双列列表" transform="translate(4 4)" fill="#8486A1" fill-rule="nonzero"><path d="M7.945 9.167H1.221A1.221 1.221 0 0 1 0 7.945V1.221C0 .547.547 0 1.221 0h6.724c.675 0 1.222.547 1.222 1.221v6.724c0 .675-.547 1.222-1.222 1.222Zm0 10.833H1.221A1.221 1.221 0 0 1 0 18.779v-6.724c0-.675.547-1.222 1.221-1.222h6.724c.675 0 1.222.547 1.222 1.222v6.724c0 .674-.547 1.221-1.222 1.221ZM18.78 9.167h-6.724a1.221 1.221 0 0 1-1.222-1.222V1.221C10.833.547 11.38 0 12.055 0h6.724C19.453 0 20 .547 20 1.221v6.724c0 .675-.547 1.222-1.221 1.222Zm0 10.833h-6.724a1.221 1.221 0 0 1-1.222-1.221v-6.724c0-.675.547-1.222 1.222-1.222h6.724c.674 0 1.221.547 1.221 1.222v6.724c0 .674-.547 1.221-1.221 1.221Z" id="形状"/></g></g></g></g></svg>