<?xml version="1.0" encoding="UTF-8"?>
<svg width="28px" height="28px" viewBox="0 0 28 28" version="1.1" xmlns="http://www.w3.org/2000/svg" xmlns:xlink="http://www.w3.org/1999/xlink">
    <title>Navigation bar_card_4</title>
    <g id="页面-1" stroke="none" stroke-width="1" fill="none" fill-rule="evenodd">
        <g id="画板" transform="translate(-482.000000, -359.000000)">
            <g id="Navigation-bar_card_4" transform="translate(482.000000, 359.000000)">
                <rect id="矩形" stroke="#979797" fill="#D8D8D8" opacity="0" x="0.5" y="0.5" width="27" height="27"></rect>
                <g id="双列列表" transform="translate(4.000000, 4.000000)" fill="#8486A1" fill-rule="nonzero">
                    <path d="M7.9453125,9.16666667 L1.22135417,9.16666667 C0.546875,9.16666667 0,8.61979167 0,7.9453125 L0,1.22135417 C0,0.546875 0.546875,0 1.22135417,0 L7.9453125,0 C8.61979167,0 9.16666667,0.546875 9.16666667,1.22135417 L9.16666667,7.9453125 C9.16666667,8.61979167 8.61979167,9.16666667 7.9453125,9.16666667 Z M7.9453125,20 L1.22135417,20 C0.546875,20 0,19.453125 0,18.7786458 L0,12.0546875 C0,11.3802083 0.546875,10.8333333 1.22135417,10.8333333 L7.9453125,10.8333333 C8.61979167,10.8333333 9.16666667,11.3802083 9.16666667,12.0546875 L9.16666667,18.7786458 C9.16666667,19.453125 8.61979167,20 7.9453125,20 L7.9453125,20 Z M18.7786458,9.16666667 L12.0546875,9.16666667 C11.3802083,9.16666667 10.8333333,8.61979167 10.8333333,7.9453125 L10.8333333,1.22135417 C10.8333333,0.546875 11.3802083,0 12.0546875,0 L18.7786458,0 C19.453125,0 20,0.546875 20,1.22135417 L20,7.9453125 C20,8.61979167 19.453125,9.16666667 18.7786458,9.16666667 L18.7786458,9.16666667 Z M18.7786458,20 L12.0546875,20 C11.3802083,20 10.8333333,19.453125 10.8333333,18.7786458 L10.8333333,12.0546875 C10.8333333,11.3802083 11.3802083,10.8333333 12.0546875,10.8333333 L18.7786458,10.8333333 C19.453125,10.8333333 20,11.3802083 20,12.0546875 L20,18.7786458 C20,19.453125 19.453125,20 18.7786458,20 L18.7786458,20 Z" id="形状"></path>
                </g>
            </g>
        </g>
    </g>
</svg>