<svg width="28" height="28" viewBox="0 0 28 28" xmlns="http://www.w3.org/2000/svg"><g id="页面-1" stroke="none" stroke-width="1" fill="none" fill-rule="evenodd"><g id="画板" transform="translate(-395 -359)"><g id="Navigation-bar_card_9" transform="translate(395 359)"><g id="编组" transform="translate(3 3)" fill="#8486A1" fill-rule="nonzero"><path d="M5.804 6.696H.892A.892.892 0 0 1 0 5.804V.892C0 .4.4 0 .892 0h4.912c.492 0 .892.4.892.892v4.912c0 .492-.4.892-.892.892Zm0 7.652H.892A.892.892 0 0 1 0 13.456V8.544c0-.492.4-.892.892-.892h4.912c.492 0 .892.4.892.892v4.912c0 .492-.4.892-.892.892Zm7.652-7.652H8.544a.892.892 0 0 1-.892-.892V.892c0-.493.4-.892.892-.892h4.912c.492 0 .892.4.892.892v4.912c0 .492-.4.892-.892.892Zm0 7.652H8.544a.892.892 0 0 1-.892-.892V8.544c0-.492.4-.892.892-.892h4.912c.492 0 .892.4.892.892v4.912c0 .492-.4.892-.892.892ZM5.804 22H.892A.892.892 0 0 1 0 21.108v-4.912c0-.492.4-.892.892-.892h4.912c.492 0 .892.4.892.892v4.912c0 .493-.4.892-.892.892Zm7.652 0H8.544a.892.892 0 0 1-.892-.892v-4.912c0-.492.4-.892.892-.892h4.912c.492 0 .892.4.892.892v4.912c0 .493-.4.892-.892.892Zm7.652-15.304h-4.912a.892.892 0 0 1-.892-.892V.892c0-.493.4-.892.892-.892h4.912C21.6 0 22 .4 22 .892v4.912c0 .492-.4.892-.892.892Zm0 7.652h-4.912a.892.892 0 0 1-.892-.892V8.544c0-.492.4-.892.892-.892h4.912c.493 0 .892.4.892.892v4.912c0 .492-.4.892-.892.892Zm0 7.652h-4.912a.892.892 0 0 1-.892-.892v-4.912c0-.492.4-.892.892-.892h4.912c.493 0 .892.4.892.892v4.912c0 .493-.4.892-.892.892Z" id="形状结合"/></g></g></g></g></svg>