<svg width="28" height="28" viewBox="0 0 28 28" xmlns="http://www.w3.org/2000/svg"><g id="页面-1" stroke="none" stroke-width="1" fill="none" fill-rule="evenodd"><g id="画板" transform="translate(-352 -359)" fill="#FF9D00"><g id="Navigation-bar_list_seclected" transform="translate(352 359)"><path d="M6.006 4c.471 0 .871.165 1.2.494.328.33.492.738.492 1.223v1.328c0 .485-.164.897-.492 1.236a1.609 1.609 0 0 1-1.2.507H4.667a1.58 1.58 0 0 1-1.174-.507A1.708 1.708 0 0 1 3 7.045V5.717c0-.485.164-.893.493-1.223A1.6 1.6 0 0 1 4.667 4h1.339Zm17.327 0a1.6 1.6 0 0 1 1.174.494c.329.33.493.738.493 1.223v1.328c0 .485-.164.897-.493 1.236a1.58 1.58 0 0 1-1.174.507H12.548c-.472 0-.872-.169-1.2-.507a1.708 1.708 0 0 1-.493-1.236V5.717c0-.485.165-.893.493-1.223a1.63 1.63 0 0 1 1.2-.494h10.785ZM6.006 12.093c.471 0 .871.17 1.2.507.328.339.492.75.492 1.236v1.328c0 .468-.164.871-.492 1.21a1.609 1.609 0 0 1-1.2.507H4.667a1.58 1.58 0 0 1-1.174-.507A1.677 1.677 0 0 1 3 15.164v-1.328c0-.485.164-.897.493-1.236a1.58 1.58 0 0 1 1.174-.507h1.339Zm17.327 0c.455 0 .846.17 1.174.507.329.339.493.75.493 1.236v1.328c0 .468-.164.871-.493 1.21a1.58 1.58 0 0 1-1.174.507H12.548c-.472 0-.872-.17-1.2-.507a1.677 1.677 0 0 1-.493-1.21v-1.328c0-.485.165-.897.493-1.236a1.609 1.609 0 0 1 1.2-.507h10.785ZM6.006 20.212c.471 0 .871.169 1.2.507.328.339.492.742.492 1.21v1.328c0 .485-.164.897-.492 1.236a1.609 1.609 0 0 1-1.2.507H4.667a1.58 1.58 0 0 1-1.174-.507A1.708 1.708 0 0 1 3 23.257v-1.328c0-.468.164-.871.493-1.21a1.58 1.58 0 0 1 1.174-.507h1.339Zm17.327 0c.455 0 .846.169 1.174.507.329.339.493.742.493 1.21v1.328c0 .485-.164.897-.493 1.236a1.58 1.58 0 0 1-1.174.507H12.548c-.472 0-.872-.17-1.2-.507a1.708 1.708 0 0 1-.493-1.236v-1.328c0-.468.165-.871.493-1.21a1.609 1.609 0 0 1 1.2-.507h10.785Z" id="形状" fill-rule="nonzero"/></g></g></g></svg>