<?xml version="1.0" encoding="UTF-8"?>
<svg width="28px" height="28px" viewBox="0 0 28 28" version="1.1" xmlns="http://www.w3.org/2000/svg" xmlns:xlink="http://www.w3.org/1999/xlink">
    <title>Navigation bar_list_seclected</title>
    <g id="页面-1" stroke="none" stroke-width="1" fill="none" fill-rule="evenodd">
        <g id="画板" transform="translate(-352.000000, -359.000000)" fill="#FF9D00">
            <g id="Navigation-bar_list_seclected" transform="translate(352.000000, 359.000000)">
                <rect id="矩形" stroke="#FF9D00" opacity="0" x="0.5" y="0.5" width="27" height="27"></rect>
                <path d="M6.00574053,4 C6.47723006,4 6.8771527,4.16480785 7.20551091,4.49442379 C7.53386912,4.8240405 7.69804822,5.23172158 7.69804822,5.71747212 L7.69804822,7.04460967 C7.69804822,7.5303602 7.53386912,7.94237918 7.20551091,8.28066914 C6.8771527,8.61895911 6.47723006,8.78810409 6.00574053,8.78810409 L4.66704937,8.78810409 C4.21239954,8.78810409 3.82089552,8.61895911 3.49253731,8.28066914 C3.1641791,7.94237918 3,7.5303602 3,7.04460967 L3,5.71747212 C3,5.23172158 3.1641791,4.8240405 3.49253731,4.49442379 C3.82089552,4.16480708 4.21239954,4 4.66704937,4 L6.00574053,4 Z M23.3329506,4 C23.7876005,4 24.1791045,4.16480785 24.5074627,4.49442379 C24.8358209,4.8240405 25,5.23172158 25,5.71747212 L25,7.04460967 C25,7.5303602 24.8358209,7.94237918 24.5074627,8.28066914 C24.1791045,8.61895911 23.7876005,8.78810409 23.3329506,8.78810409 L12.5476464,8.78810409 C12.0761569,8.78810409 11.6762342,8.61895911 11.347876,8.28066914 C11.0195178,7.94237918 10.8553387,7.5303602 10.8553387,7.04460967 L10.8553387,5.71747212 C10.8553387,5.23172158 11.0195178,4.8240405 11.347876,4.49442379 C11.6762342,4.16480708 12.0761569,4 12.5476464,4 L23.3329506,4 Z M6.00574053,12.0929368 C6.47723006,12.0929368 6.8771527,12.2620818 7.20551091,12.6003717 C7.53386912,12.9386617 7.69804822,13.3506807 7.69804822,13.8364312 L7.69804822,15.1635688 C7.69804822,15.6319703 7.53386912,16.035316 7.20551091,16.3736059 C6.8771527,16.7118959 6.47723006,16.8810409 6.00574053,16.8810409 L4.66704937,16.8810409 C4.21239954,16.8810409 3.82089552,16.7118959 3.49253731,16.3736059 C3.1641791,16.035316 3,15.6319703 3,15.1635688 L3,13.8364312 C3,13.3506807 3.1641791,12.9386617 3.49253731,12.6003717 C3.82089552,12.2620818 4.21239954,12.0929368 4.66704937,12.0929368 L6.00574053,12.0929368 Z M23.3329506,12.0929368 C23.7876005,12.0929368 24.1791045,12.2620818 24.5074627,12.6003717 C24.8358209,12.9386617 25,13.3506807 25,13.8364312 L25,15.1635688 C25,15.6319703 24.8358209,16.035316 24.5074627,16.3736059 C24.1791045,16.7118959 23.7876005,16.8810409 23.3329506,16.8810409 L12.5476464,16.8810409 C12.0761569,16.8810409 11.6762342,16.7118959 11.347876,16.3736059 C11.0195178,16.035316 10.8553387,15.6319703 10.8553387,15.1635688 L10.8553387,13.8364312 C10.8553387,13.3506807 11.0195178,12.9386617 11.347876,12.6003717 C11.6762342,12.2620818 12.0761569,12.0929368 12.5476464,12.0929368 L23.3329506,12.0929368 Z M6.00574053,20.2118959 C6.47723006,20.2118959 6.8771527,20.3810409 7.20551091,20.7193309 C7.53386912,21.0576208 7.69804822,21.4609665 7.69804822,21.929368 L7.69804822,23.2565056 C7.69804822,23.7422561 7.53386912,24.1542751 7.20551091,24.4925651 C6.8771527,24.830855 6.47723006,25 6.00574053,25 L4.66704937,25 C4.21239954,25 3.82089552,24.830855 3.49253731,24.4925651 C3.1641791,24.1542751 3,23.7422561 3,23.2565056 L3,21.929368 C3,21.4609665 3.1641791,21.0576208 3.49253731,20.7193309 C3.82089552,20.3810409 4.21239954,20.2118959 4.66704937,20.2118959 L6.00574053,20.2118959 Z M23.3329506,20.2118959 C23.7876005,20.2118959 24.1791045,20.3810409 24.5074627,20.7193309 C24.8358209,21.0576208 25,21.4609665 25,21.929368 L25,23.2565056 C25,23.7422561 24.8358209,24.1542751 24.5074627,24.4925651 C24.1791045,24.830855 23.7876005,25 23.3329506,25 L12.5476464,25 C12.0761569,25 11.6762342,24.830855 11.347876,24.4925651 C11.0195178,24.1542751 10.8553387,23.7422561 10.8553387,23.2565056 L10.8553387,21.929368 C10.8553387,21.4609665 11.0195178,21.0576208 11.347876,20.7193309 C11.6762342,20.3810409 12.0761569,20.2118959 12.5476464,20.2118959 L23.3329506,20.2118959 Z" id="形状" fill-rule="nonzero"></path>
            </g>
        </g>
    </g>
</svg>