<svg width="40" height="35" viewBox="0 0 40 35" xmlns="http://www.w3.org/2000/svg"><g id="页面-1" stroke="none" stroke-width="1" fill="none" fill-rule="evenodd"><g id="Scenes_start" transform="translate(-1315 -253)"><g id="next_Disabled" transform="translate(1315 253)"><rect id="Rectangle备份-10" fill="#C5C5C5" x="0" y="0" width="40" height="35" rx="8"/><path d="M19.91 10.091c.263.298.41.703.41 1.125v2.159h6.285c.93 0 1.395.55 1.395 1.65v4.95c0 1.1-.465 1.65-1.395 1.65H20.32v2.159c0 .879-.626 1.591-1.398 1.591-.371 0-.727-.167-.989-.466l-5.524-6.284c-.545-.621-.545-1.629 0-2.25l5.524-6.284c.546-.621 1.432-.621 1.978 0Z" id="形状结合备份" fill="#FFF" fill-rule="nonzero" transform="matrix(-1 0 0 1 40 0)"/></g></g></g></svg>