<svg width="30" height="30" viewBox="0 0 30 30" xmlns="http://www.w3.org/2000/svg"><g id="页面-1" stroke="none" stroke-width="1" fill="none" fill-rule="evenodd"><g id="画板" transform="translate(-414 -1169)"><g id="Next" transform="translate(414 1169)" fill="#2C2543"><path d="m9.829 21.673 6.74-5.88a.5.5 0 0 0 .002-.752L9.83 9.124A.5.5 0 0 0 9 9.5v11.796a.5.5 0 0 0 .829.377Z" id="Path-10" opacity=".2"/><path d="m15.829 21.673 6.74-5.88a.5.5 0 0 0 .002-.752L15.83 9.124A.5.5 0 0 0 15 9.5v11.796a.5.5 0 0 0 .829.377Z" id="Path-10-Copy"/></g></g></g></svg>