<?xml version="1.0" encoding="UTF-8"?>
<svg width="30px" height="30px" viewBox="0 0 30 30" version="1.1" xmlns="http://www.w3.org/2000/svg" xmlns:xlink="http://www.w3.org/1999/xlink">
    <title>Next</title>
    <g id="页面-1" stroke="none" stroke-width="1" fill="none" fill-rule="evenodd">
        <g id="画板" transform="translate(-414.000000, -1169.000000)">
            <g id="Next" transform="translate(414.000000, 1169.000000)">
                <path d="M9.82866499,21.6730381 L16.5693679,15.7934613 C16.7774696,15.6119446 16.7990211,15.2960966 16.6175044,15.0879949 C16.6029128,15.0712662 16.5872233,15.0555278 16.5705402,15.0408841 L9.82983723,9.1242308 C9.62230202,8.94206673 9.30638833,8.9626341 9.12422426,9.17016931 C9.04415337,9.26139218 9,9.37862714 9,9.50000654 L9,21.2962367 C9,21.5723791 9.22385763,21.7962367 9.5,21.7962367 C9.62084305,21.7962367 9.73759731,21.7524719 9.82866499,21.6730381 Z" id="Path-10" fill="#2C2543" opacity="0.200000003"></path>
                <path d="M15.828665,21.6730381 L22.5693679,15.7934613 C22.7774696,15.6119446 22.7990211,15.2960966 22.6175044,15.0879949 C22.6029128,15.0712662 22.5872233,15.0555278 22.5705402,15.0408841 L15.8298372,9.1242308 C15.622302,8.94206673 15.3063883,8.9626341 15.1242243,9.17016931 C15.0441534,9.26139218 15,9.37862714 15,9.50000654 L15,21.2962367 C15,21.5723791 15.2238576,21.7962367 15.5,21.7962367 C15.6208431,21.7962367 15.7375973,21.7524719 15.828665,21.6730381 Z" id="Path-10-Copy" fill="#2C2543"></path>
                <rect id="矩形" stroke="#979797" fill="#D8D8D8" opacity="0" x="0.5" y="0.5" width="29" height="29"></rect>
            </g>
        </g>
    </g>
</svg>