<svg width="30" height="30" viewBox="0 0 30 30" xmlns="http://www.w3.org/2000/svg"><g id="页面-1" stroke="none" stroke-width="1" fill="none" fill-rule="evenodd"><g id="画板" transform="translate(-322 -1169)"><g id="Previous" transform="translate(322 1169)" fill="#2C2543"><path d="m13.829 21.673 6.74-5.88a.5.5 0 0 0 .002-.752L13.83 9.124A.5.5 0 0 0 13 9.5v11.796a.5.5 0 0 0 .829.377Z" id="Path-10" opacity=".2" transform="matrix(-1 0 0 1 33.74 0)"/><path d="m7.829 21.673 6.74-5.88a.5.5 0 0 0 .002-.752L7.83 9.124A.5.5 0 0 0 7 9.5v11.796a.5.5 0 0 0 .829.377Z" id="Path-10-Copy" transform="matrix(-1 0 0 1 21.74 0)"/></g></g></g></svg>