<?xml version="1.0" encoding="UTF-8"?>
<svg width="30px" height="30px" viewBox="0 0 30 30" version="1.1" xmlns="http://www.w3.org/2000/svg" xmlns:xlink="http://www.w3.org/1999/xlink">
    <title>Previous</title>
    <g id="页面-1" stroke="none" stroke-width="1" fill="none" fill-rule="evenodd">
        <g id="画板" transform="translate(-322.000000, -1169.000000)">
            <g id="Previous" transform="translate(322.000000, 1169.000000)">
                <path d="M13.828665,21.6730381 L20.5693679,15.7934613 C20.7774696,15.6119446 20.7990211,15.2960966 20.6175044,15.0879949 C20.6029128,15.0712662 20.5872233,15.0555278 20.5705402,15.0408841 L13.8298372,9.1242308 C13.622302,8.94206673 13.3063883,8.9626341 13.1242243,9.17016931 C13.0441534,9.26139218 13,9.37862714 13,9.50000654 L13,21.2962367 C13,21.5723791 13.2238576,21.7962367 13.5,21.7962367 C13.6208431,21.7962367 13.7375973,21.7524719 13.828665,21.6730381 Z" id="Path-10" fill="#2C2543" opacity="0.200000003" transform="translate(16.870355, 15.398118) scale(-1, 1) translate(-16.870355, -15.398118) "></path>
                <path d="M7.82866499,21.6730381 L14.5693679,15.7934613 C14.7774696,15.6119446 14.7990211,15.2960966 14.6175044,15.0879949 C14.6029128,15.0712662 14.5872233,15.0555278 14.5705402,15.0408841 L7.82983723,9.1242308 C7.62230202,8.94206673 7.30638833,8.9626341 7.12422426,9.17016931 C7.04415337,9.26139218 7,9.37862714 7,9.50000654 L7,21.2962367 C7,21.5723791 7.22385763,21.7962367 7.5,21.7962367 C7.62084305,21.7962367 7.73759731,21.7524719 7.82866499,21.6730381 Z" id="Path-10-Copy" fill="#2C2543" transform="translate(10.870355, 15.398118) scale(-1, 1) translate(-10.870355, -15.398118) "></path>
                <rect id="矩形" stroke="#979797" fill="#D8D8D8" opacity="0" x="0.5" y="0.5" width="29" height="29"></rect>
            </g>
        </g>
    </g>
</svg>