<svg width="28" height="28" viewBox="0 0 28 28" xmlns="http://www.w3.org/2000/svg"><defs><linearGradient x1="4.367%" y1="0%" x2="91.435%" y2="89.058%" id="Room list management-1"><stop stop-color="#0569CB" offset=".045%"/><stop stop-color="#5BEDFF" offset="100%"/></linearGradient></defs><g id="页面-1" stroke="none" stroke-width="1" fill="none" fill-rule="evenodd"><g id="Devices-line" transform="translate(-147 -179)"><g id="Room-list-management备份-2" transform="translate(147 179)"><g id="开门" transform="translate(8 6)" fill="#000" fill-rule="nonzero"><path d="M8 9c0 1.105.224 2 .5 2s.5-.895.5-2-.224-2-.5-2-.5.895-.5 2Z" id="路径"/><path d="M9.752 17h-8.5c-.69-.002-1.25-.642-1.252-1.432V1.432C0 .644.563 0 1.252 0h8.496C10.436 0 11 .644 11 1.432v14.136c.004.788-.56 1.432-1.248 1.432Zm-8.5-15.926c-.168 0-.313.165-.313.358v14.136c0 .193.145.358.313.358h8.496c.168 0 .313-.165.313-.358V1.432c0-.193-.145-.358-.313-.358H1.252Z" id="形状"/></g></g></g></g></svg>