<?xml version="1.0" encoding="UTF-8"?>
<svg width="28px" height="28px" viewBox="0 0 28 28" version="1.1" xmlns="http://www.w3.org/2000/svg" xmlns:xlink="http://www.w3.org/1999/xlink">
    <title>Room list management备份 2</title>
    <defs>
        <linearGradient x1="4.36692629%" y1="0%" x2="91.4347454%" y2="89.0579578%" id="Room list management-1">
            <stop stop-color="#0569CB" offset="0.0448690878%"></stop>
            <stop stop-color="#5BEDFF" offset="100%"></stop>
        </linearGradient>
    </defs>
    <g id="页面-1" stroke="none" stroke-width="1" fill="none" fill-rule="evenodd">
        <g id="Devices-line" transform="translate(-147.000000, -179.000000)">
            <g id="Room-list-management备份-2" transform="translate(147.000000, 179.000000)">
                <rect id="矩形" fill="url(#Room list management-1)" opacity="0" x="0" y="0" width="28" height="28" rx="14"></rect>
                <g id="开门" transform="translate(8.000000, 6.000000)" fill="#000000" fill-rule="nonzero">
                    <path d="M8,9 L8,9 C8,10.1045703 8.22385742,11 8.5,11 C8.77614258,11 9,10.1045703 9,9 L9,9 C9,7.89542969 8.77614258,7 8.5,7 C8.22385742,7 8,7.89542969 8,9 L8,9 Z" id="路径"></path>
                    <path d="M9.75165834,17 L1.25221841,17 L1.25221838,17 C0.561528307,16.9975439 0.00214766459,16.3580416 0,15.5684211 L0,1.43157895 C0,0.644210526 0.563498273,0 1.25221838,0 L9.74774131,0 C10.4364614,0 10.9999799,0.644210526 10.9999799,1.43157895 L10.9999799,15.5684211 C11.0038729,16.3557895 10.4403746,17 9.75165449,17 L9.75165834,17 Z M1.25221841,1.07368421 C1.08395156,1.07368421 0.939163813,1.23921053 0.939163813,1.43157895 L0.939163813,15.5684211 C0.939163813,15.7607895 1.08395156,15.9263158 1.25221841,15.9263158 L9.74774133,15.9263158 C9.91600818,15.9263158 10.0607959,15.7607895 10.0607959,15.5684211 L10.0607959,1.43157895 C10.0607959,1.23921053 9.91600818,1.07368421 9.74774133,1.07368421 L1.25221841,1.07368421 Z" id="形状"></path>
                </g>
            </g>
        </g>
    </g>
</svg>