<svg width="24" height="24" viewBox="0 0 24 24" xmlns="http://www.w3.org/2000/svg"><g id="页面-1" stroke="none" stroke-width="1" fill="none" fill-rule="evenodd"><g id="Scenes__-add-task" transform="translate(-792 -614)"><g id="Scenes-Control" transform="translate(792 614)"><g id="形状-5" transform="translate(4 4)" fill="#95C4FF"><path d="M9.481 4.74H1.778A1.78 1.78 0 0 0 0 6.52v7.703C0 15.202.798 16 1.778 16H9.48a1.78 1.78 0 0 0 1.778-1.778V6.52A1.78 1.78 0 0 0 9.481 4.74Zm.593 9.482a.593.593 0 0 1-.593.593H1.778a.593.593 0 0 1-.593-.593V6.52c0-.327.266-.593.593-.593H9.48c.328 0 .593.266.593.593v7.703ZM11.852 2.37H4.148a.593.593 0 0 0 0 1.186h7.704c.327 0 .592.266.592.592v7.704a.593.593 0 0 0 1.186 0V4.148a1.78 1.78 0 0 0-1.778-1.778ZM8.296 12.444H2.963a.593.593 0 0 0 0 1.186h5.333a.593.593 0 0 0 0-1.186ZM14.222 0H6.52a.593.593 0 0 0 0 1.185h7.703c.327 0 .593.266.593.593V9.48a.593.593 0 0 0 1.185 0V1.778A1.78 1.78 0 0 0 14.222 0Z" id="形状"/></g></g></g></g></svg>