<?xml version="1.0" encoding="UTF-8"?>
<svg width="24px" height="24px" viewBox="0 0 24 24" version="1.1" xmlns="http://www.w3.org/2000/svg" xmlns:xlink="http://www.w3.org/1999/xlink">
    <title>Scenes Control</title>
    <g id="页面-1" stroke="none" stroke-width="1" fill="none" fill-rule="evenodd">
        <g id="Scenes__-add-task" transform="translate(-792.000000, -614.000000)">
            <g id="Scenes-Control" transform="translate(792.000000, 614.000000)">
                <rect id="矩形" stroke="#979797" fill="#D8D8D8" opacity="0" x="0.5" y="0.5" width="23" height="23"></rect>
                <g id="形状-5" transform="translate(4.000000, 4.000000)" fill="#95C4FF">
                    <path d="M9.4814815,4.74074074 L1.77777778,4.74074074 C0.797629631,4.74074074 0,5.53837037 0,6.51851852 L0,14.2222222 C0,15.2023704 0.797629631,16 1.77777778,16 L9.4814815,16 C10.4616296,16 11.2592593,15.2023704 11.2592593,14.2222222 L11.2592593,6.51851852 C11.2592593,5.53837037 10.4616296,4.74074074 9.4814815,4.74074074 Z M10.0740741,14.2222222 L10.0740741,14.2222222 C10.0740741,14.5495019 9.80876113,14.8148148 9.4814815,14.8148148 L1.77777778,14.8148148 C1.45125926,14.8148148 1.18518519,14.5493333 1.18518519,14.2222222 L1.18518519,6.51851852 C1.18518519,6.192 1.45125926,5.92592593 1.77777778,5.92592593 L9.4814815,5.92592593 C9.80859261,5.92592593 10.0740741,6.192 10.0740741,6.51851852 L10.0740741,14.2222222 Z M11.8518519,2.37037037 L4.14814815,2.37037037 L4.14814813,2.37037037 C3.8208685,2.37037037 3.55555554,2.63568333 3.55555554,2.96296296 C3.55555554,3.29024259 3.8208685,3.55555556 4.14814813,3.55555556 L11.8518518,3.55555556 C12.178963,3.55555556 12.4444444,3.82162963 12.4444444,4.14814815 L12.4444444,11.8518519 L12.4444444,11.8518519 C12.4444445,12.1791316 12.7097574,12.4444445 13.037037,12.4444445 C13.3643167,12.4444445 13.6296296,12.1791316 13.6296296,11.8518519 L13.6296296,4.14814824 C13.6296296,3.16800009 12.832,2.37037037 11.8518518,2.37037037 L11.8518519,2.37037037 Z M8.29629631,12.4444444 L2.96296297,12.4444444 L2.96296294,12.4444444 C2.63568331,12.4444444 2.37037035,12.7097574 2.37037035,13.037037 C2.37037035,13.3643167 2.63568331,13.6296296 2.96296294,13.6296296 L8.29629628,13.6296296 L8.29629626,13.6296296 C8.62357589,13.6296296 8.88888885,13.3643167 8.88888885,13.037037 C8.88888885,12.7097574 8.62357589,12.4444444 8.29629626,12.4444444 L8.29629631,12.4444444 Z M14.2222222,0 L6.51851853,0 L6.5185185,0 C6.19123887,0 5.92592591,0.265312963 5.92592591,0.592592593 C5.92592591,0.919872222 6.19123887,1.18518519 6.5185185,1.18518519 L14.2222222,1.18518519 C14.5493333,1.18518519 14.8148148,1.45125926 14.8148148,1.77777778 L14.8148148,9.48148148 L14.8148148,9.48148157 C14.8148149,9.8087612 15.0801278,10.0740742 15.4074074,10.0740742 C15.734687,10.0740742 16,9.8087612 16,9.48148157 L16,1.77777787 C16,0.797629719 15.2023704,0 14.2222222,0 L14.2222222,0 Z" id="形状"></path>
                </g>
            </g>
        </g>
    </g>
</svg>