<?xml version="1.0" encoding="UTF-8"?>
<svg width="24px" height="24px" viewBox="0 0 24 24" version="1.1" xmlns="http://www.w3.org/2000/svg" xmlns:xlink="http://www.w3.org/1999/xlink">
    <title>Security</title>
    <g id="页面-1" stroke="none" stroke-width="1" fill="none" fill-rule="evenodd">
        <g id="Scenes_Add-condition" transform="translate(-792.000000, -674.000000)">
            <g id="Security" transform="translate(792.000000, 674.000000)">
                <rect id="矩形" opacity="0.6" x="0" y="0" width="24" height="24"></rect>
                <path d="M18.5218688,6.40188383 C15.9890656,6.10832025 14.0765408,5.4010989 12.8489066,4.29356358 L12.5258449,4 L12.1769384,4.25353218 C10.2644135,5.68131868 8.36481113,6.40188383 6.54274354,6.40188383 L6,6.40188383 L6,14.2346939 C6,16.6365777 8.05467197,18.811617 12.2673956,20.8932496 L12.4870775,21 L12.7067594,20.8932496 C16.8807157,19.0384615 19,16.7967033 19,14.2213501 L19,6.45525903 L18.5218688,6.40188383 Z M17.9274354,14.2346939 C17.9274354,16.2762951 16.1053678,18.144427 12.5129225,19.7723705 C8.90755467,17.9576138 7.08548708,16.0894819 7.08548708,14.2346939 L7.08548708,7.49607535 C8.85586481,7.37598116 10.6650099,6.68210361 12.4741551,5.4144427 C13.7793241,6.44191523 15.6013917,7.12244898 17.9015905,7.44270016 L17.9015905,14.2346939 L17.9274354,14.2346939 Z" id="形状" fill="#99C6FF" fill-rule="nonzero"></path>
                <path d="M9.74399668,11.7509936 C9.54737286,11.5203127 9.19344999,11.4931737 8.97060967,11.6967158 C8.74776935,11.9002578 8.72155284,12.2666334 8.91817665,12.4973144 L11.0154974,14.9533882 C11.2383377,15.2112081 11.5398275,15.3333333 11.8413174,15.3333333 C12.1690237,15.3333333 12.4836218,15.1840692 12.6933539,14.9126798 L16.0883918,10.5975888 C16.2850156,10.3533384 16.2456908,10.0005322 16.0097423,9.79699017 C15.7737937,9.59344814 15.4329791,9.63415655 15.2363553,9.87840698 L11.8282091,14.2070674 L9.74399668,11.7509936 L9.74399668,11.7509936 Z" id="路径" fill="#99C6FF" fill-rule="nonzero"></path>
            </g>
        </g>
    </g>
</svg>