<svg width="24" height="24" viewBox="0 0 24 24" xmlns="http://www.w3.org/2000/svg"><g id="页面-1" stroke="none" stroke-width="1" fill="none" fill-rule="evenodd"><g id="Scenes_Add-condition" transform="translate(-792 -674)"><g id="Security" transform="translate(792 674)"><path id="矩形" opacity=".6" d="M0 0h24v24H0z"/><path d="M18.522 6.402c-2.533-.294-4.445-1-5.673-2.108L12.526 4l-.35.254C10.265 5.68 8.366 6.402 6.544 6.402H6v7.833c0 2.402 2.055 4.577 6.267 6.658l.22.107.22-.107C16.88 19.038 19 16.797 19 14.221V6.455l-.478-.053Zm-.595 7.833c0 2.041-1.822 3.91-5.414 5.537-3.605-1.814-5.428-3.683-5.428-5.537V7.496c1.77-.12 3.58-.814 5.39-2.082 1.304 1.028 3.126 1.708 5.427 2.029v6.792h.025Z" id="形状" fill="#99C6FF" fill-rule="nonzero"/><path d="M9.744 11.751a.542.542 0 0 0-.773-.054.59.59 0 0 0-.053.8l2.097 2.456a1.08 1.08 0 0 0 1.678-.04l3.395-4.315a.578.578 0 0 0-.078-.801.533.533 0 0 0-.774.081l-3.408 4.33-2.084-2.457Z" id="路径" fill="#99C6FF" fill-rule="nonzero"/></g></g></g></svg>