<svg width="32" height="32" viewBox="0 0 32 32" xmlns="http://www.w3.org/2000/svg"><g id="页面-1" stroke="none" stroke-width="1" fill="none" fill-rule="evenodd"><g id="画板" transform="translate(-272 -988)"><g id="tab_Security" transform="translate(272 988)"><rect id="Rectangle-Copy" fill="#FFF" x="0" y="0" width="32" height="32" rx="12"/><g id="安全备份-2" transform="translate(8 6)" fill="#696969" fill-rule="nonzero"><path d="M15.412 2.826C12.294 2.48 9.94 1.648 8.429.346L8.032 0l-.43.298C5.25 1.978 2.911 2.826.668 2.826H0v9.215c0 2.826 2.529 5.384 7.714 7.833l.27.126.27-.126C13.392 17.692 16 15.054 16 12.025V2.89l-.588-.063Zm-.732 9.215c0 2.402-2.243 4.6-6.664 6.515-4.437-2.135-6.68-4.333-6.68-6.515V4.113c2.179-.141 4.406-.958 6.632-2.449 1.607 1.209 3.85 2.01 6.68 2.386v7.99h.032Z" id="形状"/><path d="M5.161 9.108a.665.665 0 0 0-.937-.065.693.693 0 0 0-.064.954l2.541 2.925c.27.308.636.453 1.001.453.397 0 .778-.178 1.032-.501l4.113-5.14a.68.68 0 0 0-.095-.954.653.653 0 0 0-.937.097l-4.129 5.156-2.525-2.925Z" id="路径"/></g></g></g></g></svg>