<?xml version="1.0" encoding="UTF-8"?>
<svg width="32px" height="32px" viewBox="0 0 32 32" version="1.1" xmlns="http://www.w3.org/2000/svg" xmlns:xlink="http://www.w3.org/1999/xlink">
    <title>tab_Security</title>
    <g id="页面-1" stroke="none" stroke-width="1" fill="none" fill-rule="evenodd">
        <g id="画板" transform="translate(-272.000000, -988.000000)">
            <g id="tab_Security" transform="translate(272.000000, 988.000000)">
                <rect id="Rectangle-Copy" fill="#FFFFFF" x="0" y="0" width="32" height="32" rx="12"></rect>
                <g id="安全备份-2" transform="translate(8.000000, 6.000000)" fill="#696969" fill-rule="nonzero">
                    <path d="M15.4115308,2.82574568 C12.2942346,2.48037677 9.94035785,1.64835165 8.42942346,0.345368917 L8.03180915,0 L7.60238569,0.298273155 C5.24850895,1.97802198 2.91053678,2.82574568 0.667992048,2.82574568 L0,2.82574568 L0,12.0408163 C0,14.866562 2.52882704,17.4254317 7.71371769,19.8744113 L7.98409543,20 L8.25447316,19.8744113 C13.3916501,17.6923077 16,15.0549451 16,12.0251177 L16,2.88854003 L15.4115308,2.82574568 Z M14.6799205,12.0408163 C14.6799205,14.4427002 12.4373757,16.6405024 8.01590457,18.55573 C3.57852883,16.4207221 1.3359841,14.2229199 1.3359841,12.0408163 L1.3359841,4.11302983 C3.51491054,3.97174254 5.7415507,3.15541601 7.96819085,1.66405024 C9.57455268,2.87284144 11.8170974,3.67346939 14.6481113,4.05023548 L14.6481113,12.0408163 L14.6799205,12.0408163 Z" id="形状"></path>
                    <path d="M5.16099597,9.10780125 C4.92277866,8.83301951 4.49398749,8.80069225 4.22400787,9.04314672 C3.95402825,9.28560119 3.92226594,9.72201925 4.16048325,9.99680099 L6.70146794,12.9224183 C6.97144757,13.2295273 7.33671412,13.375 7.70198067,13.375 C8.09900953,13.375 8.48015723,13.1972001 8.7342557,12.8739274 L12.8474747,7.73389256 C13.085692,7.44294719 13.0380485,7.02269276 12.7521877,6.78023829 C12.466327,6.53778382 12.053417,6.58627471 11.8151996,6.87722008 L7.68609951,12.0334186 L5.16099597,9.10780125 L5.16099597,9.10780125 Z" id="路径"></path>
                </g>
            </g>
        </g>
    </g>
</svg>