<?xml version="1.0" encoding="UTF-8"?>
<svg width="24px" height="24px" viewBox="0 0 24 24" version="1.1" xmlns="http://www.w3.org/2000/svg" xmlns:xlink="http://www.w3.org/1999/xlink">
    <title>Time</title>
    <defs>
        <linearGradient x1="4.36692629%" y1="0%" x2="91.4347454%" y2="89.0579578%" id="time-noe-1">
            <stop stop-color="#0569CB" offset="0.0448690878%"></stop>
            <stop stop-color="#5BEDFF" offset="100%"></stop>
        </linearGradient>
    </defs>
    <g id="页面-1" stroke="none" stroke-width="1" fill="none" fill-rule="evenodd">
        <g id="Scenes_Add-condition" transform="translate(-792.000000, -374.000000)">
            <g id="Time" transform="translate(792.000000, 374.000000)">
                <rect id="矩形" fill="url(#time-noe-1)" opacity="0" x="0" y="0" width="24" height="24" rx="12"></rect>
                <path d="M12.5,4 C7.81303479,4 4,7.81326261 4,12.5 C4,17.1867564 7.81303479,21 12.5,21 C17.1869652,21 21,17.1867374 21,12.5 C21,7.81324362 17.1869652,4 12.5,4 Z M12.5,19.6922843 C8.53413703,19.6922843 5.30769669,16.4656162 5.30769669,12.499981 C5.30769669,8.53434586 8.53415601,5.30769669 12.5,5.30769669 C16.465863,5.30769669 19.6922843,8.53436484 19.6922843,12.5 C19.6922843,16.4656352 16.465844,19.6922843 12.5,19.6922843 Z M11.6281978,7.70510581 C11.6281978,7.34412564 11.9208514,7.05125937 12.2820442,7.05125937 C12.643237,7.05125937 12.9358907,7.34412564 12.9358907,7.70510581 L12.9358907,12.0640884 L15.9871576,12.0640884 C16.3483505,12.0640884 16.6410041,12.3569547 16.6410041,12.7179349 C16.6410041,13.0789151 16.3483505,13.3717813 15.9871576,13.3717813 L12.4727548,13.3717813 C12.0063232,13.3717813 11.6281978,12.9936673 11.6281978,12.5272357 L11.6281978,7.70509822 L11.6281978,7.70510581 Z" id="形状" fill="#99C6FF" fill-rule="nonzero"></path>
            </g>
        </g>
    </g>
</svg>