<svg width="24" height="24" viewBox="0 0 24 24" xmlns="http://www.w3.org/2000/svg"><defs><linearGradient x1="4.367%" y1="0%" x2="91.435%" y2="89.058%" id="time-noe-1"><stop stop-color="#0569CB" offset=".045%"/><stop stop-color="#5BEDFF" offset="100%"/></linearGradient></defs><g id="页面-1" stroke="none" stroke-width="1" fill="none" fill-rule="evenodd"><g id="Scenes_Add-condition" transform="translate(-792 -374)"><g id="Time" transform="translate(792 374)"><path d="M12.5 4C7.813 4 4 7.813 4 12.5c0 4.687 3.813 8.5 8.5 8.5 4.687 0 8.5-3.813 8.5-8.5C21 7.813 17.187 4 12.5 4Zm0 15.692c-3.966 0-7.192-3.226-7.192-7.192S8.534 5.308 12.5 5.308s7.192 3.226 7.192 7.192-3.226 7.192-7.192 7.192Zm-.872-11.987a.654.654 0 0 1 1.308 0v4.36h3.051a.654.654 0 0 1 0 1.307h-3.514a.845.845 0 0 1-.845-.845V7.705Z" id="形状" fill="#99C6FF" fill-rule="nonzero"/></g></g></g></svg>