<svg width="24" height="24" viewBox="0 0 24 24" xmlns="http://www.w3.org/2000/svg"><g id="页面-1" stroke="none" stroke-width="1" fill="none" fill-rule="evenodd"><g id="画板" transform="translate(-279 -172)"><g id="Timing" transform="translate(279 172)"><path id="矩形" d="M0 0h24v24H0z"/><path d="M11.472 20a7.381 7.381 0 0 1-2.895-.587 7.45 7.45 0 0 1-4.54-6.878 7.461 7.461 0 0 1 4.54-6.877 7.366 7.366 0 0 1 2.895-.587 7.418 7.418 0 0 1 5.258 2.186 7.45 7.45 0 0 1 2.177 5.278 7.461 7.461 0 0 1-4.54 6.878 7.366 7.366 0 0 1-2.895.587Zm0-13.694c-3.422 0-6.205 2.795-6.205 6.23 0 3.434 2.783 6.23 6.205 6.23 3.42 0 6.205-2.796 6.205-6.23 0-3.435-2.784-6.23-6.205-6.23ZM3.614 8.452a.622.622 0 0 1-.313-.086.621.621 0 0 1-.216-.846c.829-1.4 2.001-2.583 3.391-3.42a.616.616 0 0 1 .845.212.62.62 0 0 1-.212.847 8.637 8.637 0 0 0-2.966 2.993.614.614 0 0 1-.529.3Zm15.774-.018a.614.614 0 0 1-.529-.3 8.636 8.636 0 0 0-2.972-2.987.619.619 0 0 1-.213-.846.613.613 0 0 1 .842-.214A9.875 9.875 0 0 1 19.913 7.5a.619.619 0 0 1-.525.935Z" id="形状" fill-opacity=".6" fill="#549FFF" fill-rule="nonzero"/><path d="M14.389 15a.634.634 0 0 1-.43-.164L11.18 12.28A.544.544 0 0 1 11 11.88V7.566c0-.313.273-.566.612-.566.338 0 .611.253.611.566v4.077l2.596 2.388c.24.221.24.58.002.801a.618.618 0 0 1-.432.168Z" id="路径" fill-opacity=".6" fill="#549FFF" fill-rule="nonzero"/></g></g></g></svg>