<?xml version="1.0" encoding="UTF-8"?>
<svg width="24px" height="24px" viewBox="0 0 24 24" version="1.1" xmlns="http://www.w3.org/2000/svg" xmlns:xlink="http://www.w3.org/1999/xlink">
    <title>Timing</title>
    <g id="页面-1" stroke="none" stroke-width="1" fill="none" fill-rule="evenodd">
        <g id="画板" transform="translate(-279.000000, -172.000000)">
            <g id="Timing" transform="translate(279.000000, 172.000000)">
                <rect id="矩形" x="0" y="0" width="24" height="24"></rect>
                <path d="M11.4715999,20 C10.469194,20 9.49548679,19.8024279 8.57712717,19.4134579 C7.69156611,19.0368361 6.89620108,18.4996871 6.2135811,17.8143589 C5.53096112,17.1290308 4.99593464,16.3305104 4.62080114,15.441436 C4.23336818,14.5214911 4.03657683,13.5439209 4.03657683,12.5354801 C4.03657683,11.5290974 4.23336818,10.5515272 4.62080114,9.62952421 C4.99593464,8.74044988 5.53096112,7.94192942 6.2135811,7.25660129 C6.89620108,6.57127316 7.69156611,6.03412409 8.57712717,5.65750232 C9.49343688,5.26853231 10.4671441,5.07096023 11.4715999,5.07096023 C12.4740058,5.07096023 13.447713,5.26853231 14.3660726,5.65750232 C15.2516337,6.03412409 16.0469987,6.57127316 16.7296187,7.25660129 C17.4122387,7.94192942 17.9472651,8.74044988 18.3223986,9.62952421 C18.7098316,10.5494692 18.906623,11.5270393 18.906623,12.5354801 C18.906623,13.5418629 18.7098316,14.519433 18.3223986,15.441436 C17.9472651,16.3305104 17.4122387,17.1290308 16.7296187,17.8143589 C16.0469987,18.4996871 15.2516337,19.0368361 14.3660726,19.4134579 C13.4497629,19.8024279 12.4760557,20 11.4715999,20 Z M11.4715999,6.30578569 C8.05030033,6.30578569 5.26652274,9.1006073 5.26652274,12.5354801 C5.26652274,15.9703529 8.05030033,18.7651745 11.4715999,18.7651745 C14.8928994,18.7651745 17.676677,15.9703529 17.676677,12.5354801 C17.676677,9.1006073 14.8928994,6.30578569 11.4715999,6.30578569 Z M3.6142954,8.45232394 C3.50770009,8.45232394 3.39905486,8.42351135 3.30065919,8.36588616 C3.00957199,8.19095255 2.91322623,7.81227275 3.08541865,7.52003072 C3.91358224,6.12056187 5.08613068,4.93718747 6.47596956,4.09956421 C6.76705676,3.9246306 7.14424018,4.01930055 7.32053242,4.31154258 C7.49477476,4.6037846 7.40047891,4.98246441 7.10939171,5.15945606 C5.89379516,5.89211916 4.86679032,6.9273145 4.14317214,8.15184975 C4.02837719,8.34530573 3.8233862,8.45232394 3.6142954,8.45232394 L3.6142954,8.45232394 Z M19.3883518,8.43380156 C19.179261,8.43380156 18.97427,8.32678335 18.859475,8.13332736 C18.1338069,6.91085016 17.1047522,5.87771286 15.8871057,5.1471078 C15.5960185,4.9721742 15.4996728,4.59349439 15.6739151,4.30125236 C15.8481574,4.00901034 16.2253409,3.91228235 16.5164281,4.08721595 C17.9083168,4.92278118 19.0829152,6.10203949 19.9131287,7.4994503 C20.087371,7.79169232 19.9910253,8.17037213 19.6999381,8.34530573 C19.6035923,8.40704701 19.4949471,8.43380156 19.3883518,8.43380156 L19.3883518,8.43380156 Z" id="形状" fill-opacity="0.6" fill="#549FFF" fill-rule="nonzero"></path>
                <path d="M14.3890263,15 C14.2340527,15 14.0770401,14.9452443 13.9587708,14.8357328 L11.1814822,12.2810951 C11.065252,12.1753599 11,12.029974 11,11.8789238 L11,7.56643852 C11,7.2530092 11.2732428,7 11.6117376,7 C11.9502324,7 12.2234752,7.2530092 12.2234752,7.56643852 L12.2234752,11.6429077 L14.8192817,14.0313901 C15.0598985,14.2523012 15.0598985,14.6110456 14.8213208,14.8319566 C14.7050907,14.9452443 14.5460389,15 14.3890263,15 L14.3890263,15 Z" id="路径" fill-opacity="0.6" fill="#549FFF" fill-rule="nonzero"></path>
            </g>
        </g>
    </g>
</svg>