<?xml version="1.0" encoding="UTF-8"?>
<svg width="26px" height="12px" viewBox="0 0 26 12" version="1.1" xmlns="http://www.w3.org/2000/svg" xmlns:xlink="http://www.w3.org/1999/xlink">
    <title>up</title>
    <g id="页面-1" stroke="none" stroke-width="1" fill="none" fill-rule="evenodd">
        <g id="add-Scenes_test、delete" transform="translate(-1198.000000, -493.000000)">
            <g id="up" transform="translate(1198.000000, 493.000000)">
                <rect id="矩形" fill-opacity="0.163994" fill="#000000" x="0" y="0" width="26" height="12" rx="6"></rect>
                <path d="M20.9141032,7.77121615 L20.9141032,7.77121616 C20.7252277,8.11302266 20.2847544,8.24247069 19.9302785,8.06034531 C19.9301442,8.06027633 19.93001,8.06020731 19.9298758,8.06013824 L13.0000336,4.49628603 L6.06971793,8.06013824 L6.06971799,8.06013821 C5.71532353,8.24242758 5.27477882,8.11317697 5.08573233,7.77144918 C4.89668622,7.42972121 5.03072764,7.00492209 5.3851219,6.82263236 L12.6577432,3.08253155 L12.6577432,3.08253154 C12.8716738,2.97248948 13.1284087,2.97248948 13.3423393,3.08253156 L20.6149606,6.82263237 L20.6149606,6.82263237 C20.9693266,7.00495827 21.1033133,7.42976505 20.9142289,7.77146381 C20.9141886,7.77153663 20.9141483,7.77160945 20.914108,7.77168226 L20.9141032,7.77121615 Z" id="路径" fill="#FFFFFF" fill-rule="nonzero"></path>
            </g>
        </g>
    </g>
</svg>