<svg width="36" height="36" viewBox="0 0 36 36" xmlns="http://www.w3.org/2000/svg" xmlns:xlink="http://www.w3.org/1999/xlink"><defs><path d="M0 18c0 9.941 8.059 18 18 18s18-8.059 18-18S27.941 0 18 0 0 8.059 0 18ZM18 7.705a5 5 0 1 1-5 5 4.988 4.988 0 0 1 4.976-5H18Zm0 22c-4.023-.002-7.778-1.922-10-5.113 0-3.16 6.667-4.887 10-4.887s9.953 1.727 10 4.887c-2.233 3.174-5.986 5.075-10 5.068v.045Z" id="user-path-1"/></defs><g id="页面-1" stroke="none" stroke-width="1" fill="none" fill-rule="evenodd"><g id="home-" transform="translate(-1802 -14)"><g id="user" transform="translate(1802 14)"><path d="M0 18c0 9.941 8.059 18 18 18s18-8.059 18-18S27.941 0 18 0 0 8.059 0 18Z" id="路径" fill="#FFF" fill-rule="nonzero"/><mask id="mask-2" fill="#fff"><use xlink:href="#user-path-1"/></mask><use id="蒙版" fill="#FFB220" fill-rule="nonzero" xlink:href="#user-path-1"/><circle id="椭圆形" fill="#FFD99D" opacity=".453" mask="url(#mask-2)" cx="32.857" cy="21.4" r="16.714"/><circle id="椭圆形备份" fill="#FF9A00" opacity=".694" mask="url(#mask-2)" cx="10.571" cy="30.543" r="16.714"/></g></g></g></svg>