<svg version="1.1" xmlns="http://www.w3.org/2000/svg" xmlns:xlink="http://www.w3.org/1999/xlink" width="36px" height="36px" viewBox="0,0,256,256"><g fill="none" fill-rule="none" stroke="none" stroke-width="1" stroke-linecap="butt" stroke-linejoin="miter" stroke-miterlimit="10" stroke-dasharray="" stroke-dashoffset="0" font-family="none" font-weight="none" font-size="none" text-anchor="none" style="mix-blend-mode: normal"><g transform="translate(-26.4127,-40.0254) scale(7.11111,7.11111)"><g id="页面-1"><g transform="translate(-1802,-14)" id="home-"><g transform="translate(1802,14)" id="user"><path d="M0,18c0,9.94113 8.05887,18 18,18c9.94113,0 18,-8.05887 18,-18c0,-9.94113 -8.05887,-18 -18,-18c-9.94113,0 -18,8.05887 -18,18z" id="路径" fill="#0030ff" fill-rule="nonzero"></path><path d="M0,18c0,9.94113 8.05887,18 18,18c9.94113,0 18,-8.05887 18,-18c0,-9.94113 -8.05887,-18 -18,-18c-9.94113,0 -18,8.05887 -18,18zM18,7.70484v0c2.76143,0 5,2.23858 5,5c0,2.76142 -2.23857,5 -5,5c-2.76141,0 -5,-2.23858 -5,-5v-0.00006c-0.00651,-2.75487 2.22147,-4.99341 4.97635,-4.99994c0.00791,0 0.01582,0 0.02373,0zM18,29.70484v0c-4.02321,-0.00227 -7.77769,-1.92191 -10,-5.11287c0,-3.16027 6.66667,-4.88713 10,-4.88713c3.33333,0 9.95255,1.72686 10,4.88713v0c-2.23319,3.17377 -5.9858,5.07551 -10,5.06772z" id="蒙版" fill="#339af0" fill-rule="nonzero"></path><circle cx="32.85714" cy="21.4" r="16.71429" id="椭圆形" fill="#5c7cfa" fill-rule="evenodd" opacity="0.45334"></circle><circle cx="10.57143" cy="30.54286" r="16.71429" id="椭圆形备份" fill="#5c7cfa" fill-rule="evenodd" opacity="0.69383"></circle></g></g></g></g></g></svg>