<?xml version="1.0" encoding="UTF-8"?>
<svg width="30px" height="30px" viewBox="0 0 30 30" version="1.1" xmlns="http://www.w3.org/2000/svg" xmlns:xlink="http://www.w3.org/1999/xlink">
    <title>volume2</title>
    <g id="页面-1" stroke="none" stroke-width="1" fill="none" fill-rule="evenodd">
        <g id="device-pop-_music" transform="translate(-1736.000000, -598.000000)">
            <g id="volume2" transform="translate(1736.000000, 598.000000)">
                <rect id="矩形备份-5" fill="#FFFFFF" opacity="0" x="0" y="0" width="30" height="30" rx="15"></rect>
                <path d="M16.2041241,22.5 C16.0190171,22.5 15.8319408,22.461629 15.6566799,22.3848873 L8.15393704,19.0696441 L6.49978901,19.0696441 C5.76920697,19.0696441 5.17647059,18.4921625 5.17647059,17.7803828 L5.17647059,12.2204436 C5.17647059,11.508664 5.76920697,10.9311824 6.49978901,10.9311824 L8.15590626,10.9311824 L15.6586491,7.61593912 C16.0702169,7.43367748 16.5428306,7.46821126 16.9228908,7.70611066 C17.302951,7.94401006 17.5294118,8.34882275 17.5294118,8.79008776 L17.5294118,21.2088201 C17.5294118,21.6481666 17.302951,22.0548978 16.9228908,22.2927972 L16.9228908,22.2927972 C16.7088972,22.4281031 16.4592331,22.5 16.2041241,22.5 L16.2041241,22.5 Z" id="形状" fill="#333333" fill-rule="nonzero"></path>
                <path d="M20.2941176,19.1666667 C19.8076418,19.1666667 19.4117647,18.7927827 19.4117647,18.3333333 L19.4117647,10.8333333 C19.4117647,10.3738839 19.8076418,10 20.2941176,10 C20.7805935,10 21.1764706,10.3738839 21.1764706,10.8333333 L21.1764706,18.3333333 C21.1764706,18.7927827 20.7805935,19.1666667 20.2941176,19.1666667 Z" id="路径" fill="#505050" fill-rule="nonzero"></path>
                <path d="M23.8235294,20 C23.3370536,20 22.9411765,19.6114432 22.9411765,19.133963 L22.9411765,10.0327037 C22.9411765,9.55522345 23.3370536,9.16666667 23.8235294,9.16666667 C24.3100053,9.16666667 24.7058824,9.55522345 24.7058824,10.0327037 L24.7058824,19.133963 C24.7058824,19.6114432 24.3100053,20 23.8235294,20 Z" id="路径备份" fill="#505050" fill-rule="nonzero"></path>
            </g>
        </g>
    </g>
</svg>