<svg width="30" height="30" viewBox="0 0 30 30" xmlns="http://www.w3.org/2000/svg"><g id="页面-1" stroke="none" stroke-width="1" fill="none" fill-rule="evenodd"><g id="device-pop-_music" transform="translate(-1736 -598)"><g id="volume2" transform="translate(1736 598)" fill-rule="nonzero"><path d="M16.204 22.5c-.185 0-.372-.038-.547-.115L8.154 19.07H6.5c-.73 0-1.324-.578-1.324-1.29v-5.56c0-.711.593-1.289 1.324-1.289h1.656l7.503-3.315a1.35 1.35 0 0 1 1.264.09c.38.238.606.643.606 1.084V21.21c0 .44-.226.846-.606 1.084a1.346 1.346 0 0 1-.719.207Z" id="形状" fill="#333"/><path d="M20.294 19.167c-.486 0-.882-.374-.882-.834v-7.5c0-.46.396-.833.882-.833.487 0 .882.374.882.833v7.5c0 .46-.395.834-.882.834Z" id="路径" fill="#505050"/><path d="M23.824 20a.875.875 0 0 1-.883-.866v-9.101c0-.478.396-.866.883-.866.486 0 .882.388.882.866v9.101a.875.875 0 0 1-.882.866Z" id="路径备份" fill="#505050"/></g></g></g></svg>